<svg width="93" height="100" viewBox="0 0 93 100" fill="none" xmlns="http://www.w3.org/2000/svg">
<path fill-rule="evenodd" clip-rule="evenodd" d="M39.1616 19.3622C44.9629 17.7938 51.0003 17.7938 56.8016 19.3622C65.1785 21.6244 71.7202 29.1586 73.6845 38.8063C75.0463 45.4877 75.0463 52.4411 73.6845 59.1226C71.7202 68.7702 65.1785 76.3045 56.8016 78.5667C51.0003 80.1351 44.9629 80.1351 39.1616 78.5667C30.7847 76.3045 24.2429 68.7702 22.2787 59.1226C20.9169 52.4411 20.9169 45.4877 22.2787 38.8063C24.2429 29.1586 30.7847 21.6244 39.1616 19.3622ZM52.4055 42.1676C53.3342 41.7392 54.2551 42.7998 53.8843 43.8693L51.567 50.5405C51.1628 51.705 50.3611 52.627 49.3501 53.0938L43.5576 55.7613C42.6301 56.1896 41.7082 55.1291 42.0801 54.0595L44.3973 47.3883C44.8015 46.2239 45.602 45.3019 46.6142 44.835L52.4055 42.1676ZM57.0511 45.3287C58.5365 41.0518 54.8519 36.8096 51.1395 38.519L45.347 41.1878C43.4686 42.0534 41.9809 43.7667 41.2293 45.9302L38.9133 52.6001C37.4279 56.877 41.1124 61.1193 44.8248 59.4098L50.6172 56.7411C52.4946 55.8755 53.9834 54.1621 54.7339 51.9987L57.0511 45.3287Z" fill="#FCA311"/>
<path fill-rule="evenodd" clip-rule="evenodd" d="M39.1616 19.3622C44.9629 17.7938 51.0003 17.7938 56.8016 19.3622C65.1785 21.6244 71.7202 29.1586 73.6845 38.8063C75.0463 45.4877 75.0463 52.4411 73.6845 59.1226C71.7202 68.7702 65.1785 76.3045 56.8016 78.5667C51.0003 80.1351 44.9629 80.1351 39.1616 78.5667C30.7847 76.3045 24.2429 68.7702 22.2787 59.1226C20.9169 52.4411 20.9169 45.4877 22.2787 38.8063C24.2429 29.1586 30.7847 21.6244 39.1616 19.3622ZM52.4055 42.1676C53.3342 41.7392 54.2551 42.7998 53.8843 43.8693L51.567 50.5405C51.1628 51.705 50.3611 52.627 49.3501 53.0938L43.5576 55.7613C42.6301 56.1896 41.7082 55.1291 42.0801 54.0595L44.3973 47.3883C44.8015 46.2239 45.602 45.3019 46.6142 44.835L52.4055 42.1676ZM57.0511 45.3287C58.5365 41.0518 54.8519 36.8096 51.1395 38.519L45.347 41.1878C43.4686 42.0534 41.9809 43.7667 41.2293 45.9302L38.9133 52.6001C37.4279 56.877 41.1124 61.1193 44.8248 59.4098L50.6172 56.7411C52.4946 55.8755 53.9834 54.1621 54.7339 51.9987L57.0511 45.3287Z" fill="url(#paint0_linear_103_903)"/>
<defs>
<linearGradient id="paint0_linear_103_903" x1="21.2577" y1="17.9015" x2="61.7387" y2="87.0486" gradientUnits="userSpaceOnUse">
<stop stop-color="#09C6F9"/>
<stop offset="1" stop-color="#045DE9"/>
</linearGradient>
</defs>
</svg>
