<svg width="71" height="87" viewBox="0 0 71 87" fill="none" xmlns="http://www.w3.org/2000/svg">
<path d="M36.8493 13.864V32.3387H13.7921C16.2273 23.6977 22.4083 17.074 30.1616 14.9746C32.3663 14.377 34.6033 14.0076 36.8493 13.864Z" fill="#FCA311"/>
<path d="M36.8493 13.864V32.3387H13.7921C16.2273 23.6977 22.4083 17.074 30.1616 14.9746C32.3663 14.377 34.6033 14.0076 36.8493 13.864Z" fill="url(#paint0_linear_104_908)"/>
<path d="M41.1139 13.864V52.0239H65.1721C66.0195 46.2004 65.8569 40.2307 64.6844 34.4624C62.7202 24.7929 56.1784 17.242 47.8016 14.9746C45.598 14.377 43.3598 14.0076 41.1139 13.864Z" fill="#FCA311"/>
<path d="M41.1139 13.864V52.0239H65.1721C66.0195 46.2004 65.8569 40.2307 64.6844 34.4624C62.7202 24.7929 56.1784 17.242 47.8016 14.9746C45.598 14.377 43.3598 14.0076 41.1139 13.864Z" fill="url(#paint1_linear_104_908)"/>
<path d="M64.1711 56.9458H41.1139V75.4204C43.3598 75.2768 45.598 74.9074 47.8016 74.3098C55.5549 72.2105 61.7359 65.5868 64.1711 56.9458Z" fill="#FCA311"/>
<path d="M64.1711 56.9458H41.1139V75.4204C43.3598 75.2768 45.598 74.9074 47.8016 74.3098C55.5549 72.2105 61.7359 65.5868 64.1711 56.9458Z" fill="url(#paint2_linear_104_908)"/>
<path d="M36.8493 75.4205V37.2606H12.791C11.9437 43.0841 12.1062 49.0538 13.2787 54.8221C15.243 64.4916 21.7847 72.0425 30.1616 74.3099C32.3663 74.9075 34.6034 75.2769 36.8493 75.4205Z" fill="#FCA311"/>
<path d="M36.8493 75.4205V37.2606H12.791C11.9437 43.0841 12.1062 49.0538 13.2787 54.8221C15.243 64.4916 21.7847 72.0425 30.1616 74.3099C32.3663 74.9075 34.6034 75.2769 36.8493 75.4205Z" fill="url(#paint3_linear_104_908)"/>
<defs>
<linearGradient id="paint0_linear_104_908" x1="12.2577" y1="13.5793" x2="52.7387" y2="82.7265" gradientUnits="userSpaceOnUse">
<stop stop-color="#09C6F9"/>
<stop offset="1" stop-color="#045DE9"/>
</linearGradient>
<linearGradient id="paint1_linear_104_908" x1="12.2576" y1="13.5793" x2="52.7386" y2="82.7264" gradientUnits="userSpaceOnUse">
<stop stop-color="#09C6F9"/>
<stop offset="1" stop-color="#045DE9"/>
</linearGradient>
<linearGradient id="paint2_linear_104_908" x1="12.2576" y1="13.5792" x2="52.7386" y2="82.7264" gradientUnits="userSpaceOnUse">
<stop stop-color="#09C6F9"/>
<stop offset="1" stop-color="#045DE9"/>
</linearGradient>
<linearGradient id="paint3_linear_104_908" x1="12.2577" y1="13.5793" x2="52.7387" y2="82.7264" gradientUnits="userSpaceOnUse">
<stop stop-color="#09C6F9"/>
<stop offset="1" stop-color="#045DE9"/>
</linearGradient>
</defs>
</svg>
