<svg width="114" height="78" viewBox="0 0 114 78" fill="none" xmlns="http://www.w3.org/2000/svg">
<path fill-rule="evenodd" clip-rule="evenodd" d="M46.4305 10.751C52.0058 10.751 56.7872 14.411 59.1879 19.6959C62.1342 18.18 65.4157 17.3349 68.8731 17.3349C81.5658 17.3349 91.9202 28.7396 91.9202 42.8976C91.9202 57.0556 81.5647 68.4602 68.8731 68.4602H41.9421C32.6822 68.4602 25.1104 60.1372 25.1104 49.7791C25.1104 43.0437 28.3184 37.1651 33.0997 33.8821C32.4005 31.911 32.0163 29.754 32.0163 27.4982C32.0163 18.343 38.3877 10.751 46.4305 10.751ZM36.6774 27.4982C36.6774 21.0527 41.1258 15.9974 46.4305 15.9974C50.2086 15.9974 53.5424 18.5481 55.1581 22.3531C52.2407 24.7525 49.8501 27.8996 48.2188 31.5468C48.1063 31.7956 47.9983 32.047 47.8948 32.3009C47.6865 32.2137 47.4772 32.1316 47.2656 32.0534C45.5898 31.434 43.7994 31.0992 41.9421 31.0992C40.3642 31.0992 38.8331 31.3403 37.38 31.7943C36.9268 30.4708 36.6774 29.0217 36.6774 27.4982Z" fill="#FCA311"/>
<path fill-rule="evenodd" clip-rule="evenodd" d="M46.4305 10.751C52.0058 10.751 56.7872 14.411 59.1879 19.6959C62.1342 18.18 65.4157 17.3349 68.8731 17.3349C81.5658 17.3349 91.9202 28.7396 91.9202 42.8976C91.9202 57.0556 81.5647 68.4602 68.8731 68.4602H41.9421C32.6822 68.4602 25.1104 60.1372 25.1104 49.7791C25.1104 43.0437 28.3184 37.1651 33.0997 33.8821C32.4005 31.911 32.0163 29.754 32.0163 27.4982C32.0163 18.343 38.3877 10.751 46.4305 10.751ZM36.6774 27.4982C36.6774 21.0527 41.1258 15.9974 46.4305 15.9974C50.2086 15.9974 53.5424 18.5481 55.1581 22.3531C52.2407 24.7525 49.8501 27.8996 48.2188 31.5468C48.1063 31.7956 47.9983 32.047 47.8948 32.3009C47.6865 32.2137 47.4772 32.1316 47.2656 32.0534C45.5898 31.434 43.7994 31.0992 41.9421 31.0992C40.3642 31.0992 38.8331 31.3403 37.38 31.7943C36.9268 30.4708 36.6774 29.0217 36.6774 27.4982Z" fill="url(#paint0_linear_102_893)"/>
<defs>
<linearGradient id="paint0_linear_102_893" x1="25.1104" y1="10.4842" x2="57.1526" y2="83.4591" gradientUnits="userSpaceOnUse">
<stop stop-color="#09C6F9"/>
<stop offset="1" stop-color="#045DE9"/>
</linearGradient>
</defs>
</svg>
