<svg width="113" height="78" viewBox="0 0 113 78" fill="none" xmlns="http://www.w3.org/2000/svg">
<path fill-rule="evenodd" clip-rule="evenodd" d="M43.1637 10.751C48.7389 10.751 53.5203 14.411 55.921 19.6959C58.8673 18.18 62.1488 17.3349 65.6062 17.3349C78.299 17.3349 88.6534 28.7396 88.6534 42.8976C88.6534 57.0556 78.2979 68.4602 65.6062 68.4602H38.6752C29.4154 68.4602 21.8436 60.1372 21.8436 49.7791C21.8436 43.0437 25.0515 37.1651 29.8329 33.8821C29.1336 31.911 28.7495 29.754 28.7495 27.4982C28.7495 18.343 35.1209 10.751 43.1637 10.751ZM33.4106 27.4982C33.4106 21.0527 37.859 15.9974 43.1637 15.9974C46.9418 15.9974 50.2756 18.5481 51.8913 22.3531C48.9739 24.7525 46.5832 27.8996 44.952 31.5468C44.8395 31.7956 44.7315 32.047 44.6279 32.3009C44.4197 32.2137 44.2103 32.1316 43.9988 32.0534C42.323 31.434 40.5325 31.0992 38.6752 31.0992C37.0974 31.0992 35.5663 31.3403 34.1132 31.7943C33.66 30.4708 33.4106 29.0217 33.4106 27.4982Z" fill="#FCA311"/>
<path fill-rule="evenodd" clip-rule="evenodd" d="M43.1637 10.751C48.7389 10.751 53.5203 14.411 55.921 19.6959C58.8673 18.18 62.1488 17.3349 65.6062 17.3349C78.299 17.3349 88.6534 28.7396 88.6534 42.8976C88.6534 57.0556 78.2979 68.4602 65.6062 68.4602H38.6752C29.4154 68.4602 21.8436 60.1372 21.8436 49.7791C21.8436 43.0437 25.0515 37.1651 29.8329 33.8821C29.1336 31.911 28.7495 29.754 28.7495 27.4982C28.7495 18.343 35.1209 10.751 43.1637 10.751ZM33.4106 27.4982C33.4106 21.0527 37.859 15.9974 43.1637 15.9974C46.9418 15.9974 50.2756 18.5481 51.8913 22.3531C48.9739 24.7525 46.5832 27.8996 44.952 31.5468C44.8395 31.7956 44.7315 32.047 44.6279 32.3009C44.4197 32.2137 44.2103 32.1316 43.9988 32.0534C42.323 31.434 40.5325 31.0992 38.6752 31.0992C37.0974 31.0992 35.5663 31.3403 34.1132 31.7943C33.66 30.4708 33.4106 29.0217 33.4106 27.4982Z" fill="url(#paint0_linear_102_894)"/>
<defs>
<linearGradient id="paint0_linear_102_894" x1="21.8436" y1="10.4842" x2="53.8857" y2="83.4591" gradientUnits="userSpaceOnUse">
<stop stop-color="#09C6F9"/>
<stop offset="1" stop-color="#045DE9"/>
</linearGradient>
</defs>
</svg>
