<svg width="79" height="77" viewBox="0 0 79 77" fill="none" xmlns="http://www.w3.org/2000/svg">
<path d="M22.3723 39.082C19.805 38.2353 17.1335 38.2353 14.5661 39.082C11.2039 40.1915 8.57899 43.887 7.79055 48.6187C7.18782 52.2317 7.18782 55.9914 7.79055 59.6044C8.57899 64.3361 11.2039 68.0301 14.5661 69.1396C17.1335 69.9879 19.805 69.9879 22.3723 69.1396C25.7346 68.0301 28.3605 64.3361 29.149 59.6044C29.7506 55.9914 29.7506 52.2317 29.149 48.6187C28.3605 43.887 25.7346 40.1915 22.3723 39.082Z" fill="#FCA311"/>
<path d="M22.3723 39.082C19.805 38.2353 17.1335 38.2353 14.5661 39.082C11.2039 40.1915 8.57899 43.887 7.79055 48.6187C7.18782 52.2317 7.18782 55.9914 7.79055 59.6044C8.57899 64.3361 11.2039 68.0301 14.5661 69.1396C17.1335 69.9879 19.805 69.9879 22.3723 69.1396C25.7346 68.0301 28.3605 64.3361 29.149 59.6044C29.7506 55.9914 29.7506 52.2317 29.149 48.6187C28.3605 43.887 25.7346 40.1915 22.3723 39.082Z" fill="url(#paint0_linear_104_906)"/>
<path d="M52.2395 39.082C49.6722 38.2353 47.0006 38.2353 44.4333 39.082C41.0711 40.1915 38.4451 43.887 37.6567 48.6187C37.055 52.2317 37.055 55.9914 37.6567 59.6044C38.4451 64.3361 41.0711 68.0301 44.4333 69.1396C47.0006 69.9879 49.6722 69.9879 52.2395 69.1396C55.6018 68.0301 58.2267 64.3361 59.0151 59.6044C59.6178 55.9914 59.6178 52.2317 59.0151 48.6187C58.2267 43.887 55.6018 40.1915 52.2395 39.082Z" fill="#FCA311"/>
<path d="M52.2395 39.082C49.6722 38.2353 47.0006 38.2353 44.4333 39.082C41.0711 40.1915 38.4451 43.887 37.6567 48.6187C37.055 52.2317 37.055 55.9914 37.6567 59.6044C38.4451 64.3361 41.0711 68.0301 44.4333 69.1396C47.0006 69.9879 49.6722 69.9879 52.2395 69.1396C55.6018 68.0301 58.2267 64.3361 59.0151 59.6044C59.6178 55.9914 59.6178 52.2317 59.0151 48.6187C58.2267 43.887 55.6018 40.1915 52.2395 39.082Z" fill="url(#paint1_linear_104_906)"/>
<defs>
<linearGradient id="paint0_linear_104_906" x1="7.33877" y1="-3.92375" x2="59.6982" y2="69.2699" gradientUnits="userSpaceOnUse">
<stop stop-color="#09C6F9"/>
<stop offset="1" stop-color="#045DE9"/>
</linearGradient>
<linearGradient id="paint1_linear_104_906" x1="7.33874" y1="-3.92375" x2="59.6981" y2="69.2699" gradientUnits="userSpaceOnUse">
<stop stop-color="#09C6F9"/>
<stop offset="1" stop-color="#045DE9"/>
</linearGradient>
</defs>
</svg>
