<svg width="49" height="52" viewBox="0 0 49 52" fill="none" xmlns="http://www.w3.org/2000/svg">
<path d="M25.5736 46.1233C35.4131 46.1233 43.3896 36.9368 43.3896 25.6045C43.3896 14.2723 35.4131 5.08569 25.5736 5.08569C15.7342 5.08569 7.75769 14.2723 7.75769 25.6045C7.75769 36.9368 15.7342 46.1233 25.5736 46.1233Z" fill="#FCA311"/>
<path d="M25.5736 46.1233C35.4131 46.1233 43.3896 36.9368 43.3896 25.6045C43.3896 14.2723 35.4131 5.08569 25.5736 5.08569C15.7342 5.08569 7.75769 14.2723 7.75769 25.6045C7.75769 36.9368 15.7342 46.1233 25.5736 46.1233Z" fill="url(#paint0_linear_104_915)"/>
<path d="M17.5742 30.7343V19.9619H23.6138V21.547H19.2845V24.5633H22.7854V26.1176H19.2845V30.7343H17.5742ZM24.9333 30.7343V19.9619H28.688C29.659 19.9619 30.3984 20.2235 30.9061 20.7468C31.4228 21.2597 31.6811 21.9215 31.6811 22.732C31.6811 23.4091 31.5208 23.9528 31.2001 24.3632C30.8883 24.7633 30.5052 25.0353 30.0509 25.1789C30.5854 25.302 31.0264 25.6098 31.3738 26.1022C31.7212 26.5844 31.8949 27.1487 31.8949 27.795C31.8949 28.6465 31.6277 29.3493 31.0932 29.9033C30.5587 30.4573 29.8015 30.7343 28.8216 30.7343H24.9333ZM26.6436 24.4863H28.4341C28.9152 24.4863 29.2849 24.3581 29.5432 24.1016C29.8015 23.8451 29.9307 23.4809 29.9307 23.009C29.9307 22.5576 29.8015 22.2036 29.5432 21.9472C29.2938 21.6804 28.9152 21.547 28.4074 21.547H26.6436V24.4863ZM26.6436 29.1339H28.5544C29.0622 29.1339 29.4541 29.0005 29.7303 28.7337C30.0153 28.4567 30.1578 28.072 30.1578 27.5795C30.1578 27.0768 30.0109 26.6819 29.7169 26.3946C29.4229 26.1074 29.0265 25.9637 28.5277 25.9637H26.6436V29.1339Z" fill="white"/>
<defs>
<linearGradient id="paint0_linear_104_915" x1="7.75769" y1="4.89589" x2="34.7455" y2="50.9934" gradientUnits="userSpaceOnUse">
<stop stop-color="#09C6F9"/>
<stop offset="1" stop-color="#045DE9"/>
</linearGradient>
</defs>
</svg>
