<svg width="41" height="54" viewBox="0 0 41 54" fill="none" xmlns="http://www.w3.org/2000/svg">
<path d="M21.1136 46.1233C30.953 46.1233 38.9295 36.9368 38.9295 25.6045C38.9295 14.2723 30.953 5.08569 21.1136 5.08569C11.2741 5.08569 3.29761 14.2723 3.29761 25.6045C3.29761 36.9368 11.2741 46.1233 21.1136 46.1233Z" fill="#FCA311"/>
<path d="M21.1136 46.1233C30.953 46.1233 38.9295 36.9368 38.9295 25.6045C38.9295 14.2723 30.953 5.08569 21.1136 5.08569C11.2741 5.08569 3.29761 14.2723 3.29761 25.6045C3.29761 36.9368 11.2741 46.1233 21.1136 46.1233Z" fill="url(#paint0_linear_104_918)"/>
<path d="M14.2277 30.7343V19.9619H15.938V30.7343H14.2277ZM21.8395 30.9189C20.9576 30.9189 20.1871 30.6881 19.5279 30.2264C18.8687 29.7648 18.3565 29.1236 17.9913 28.3028C17.6261 27.4718 17.4434 26.5074 17.4434 25.4097C17.4434 24.3017 17.6305 23.327 18.0046 22.4857C18.3877 21.6342 18.9266 20.9725 19.6214 20.5005C20.3252 20.0184 21.158 19.7772 22.1201 19.7772C23.2158 19.7772 24.1244 20.0799 24.8459 20.6852C25.5675 21.2905 26.0352 22.1266 26.249 23.1936H24.3382C24.1957 22.6909 23.9374 22.3011 23.5632 22.0241C23.1891 21.7368 22.708 21.5932 22.1201 21.5932C21.1848 21.5932 20.4632 21.9369 19.9555 22.6242C19.4477 23.3014 19.1938 24.2349 19.1938 25.425C19.1938 26.6151 19.4433 27.5385 19.9421 28.1951C20.4499 28.8414 21.1358 29.1646 21.9998 29.1646C22.8461 29.1646 23.483 28.903 23.9106 28.3798C24.3471 27.8463 24.6099 27.1486 24.699 26.2868H22.3339V24.8095H26.4227V30.7343H24.8459L24.7123 29.3185C24.4095 29.8315 24.0309 30.2265 23.5766 30.5035C23.1223 30.7805 22.5433 30.9189 21.8395 30.9189Z" fill="white"/>
<defs>
<linearGradient id="paint0_linear_104_918" x1="3.29761" y1="4.89589" x2="30.2854" y2="50.9934" gradientUnits="userSpaceOnUse">
<stop stop-color="#09C6F9"/>
<stop offset="1" stop-color="#045DE9"/>
</linearGradient>
</defs>
</svg>
