<svg width="91" height="100" viewBox="0 0 91 100" fill="none" xmlns="http://www.w3.org/2000/svg">
<path fill-rule="evenodd" clip-rule="evenodd" d="M57.4477 70.2182L55.891 70.6132V72.9972C55.891 77.0843 53.6596 80.561 50.5462 81.8498V88.2684C50.5462 89.9971 49.3493 91.3975 47.8739 91.3975C46.3974 91.3975 45.2004 89.9971 45.2004 88.2684V81.8498C42.087 80.561 39.8555 77.0843 39.8555 72.9972V70.7876C39.6239 70.7338 39.3912 70.6773 39.1596 70.6183L37.5829 70.2182C29.8887 68.2663 23.8 61.3849 21.8625 52.4502C20.4339 45.8662 20.4339 38.9693 21.8625 32.3854C23.8 23.452 29.8887 16.5692 37.5829 14.6174L39.1596 14.2172C44.6658 12.8207 50.3648 12.8207 55.871 14.2172L57.4477 14.6174C65.1419 16.5692 71.2306 23.4519 73.1681 32.3866C74.5967 38.9693 74.5967 45.8662 73.1681 52.4502C71.2306 61.3849 65.1419 68.2663 57.4477 70.2182ZM50.5462 71.5301C50.2356 71.5583 49.926 71.5814 49.6153 71.6007C48.1444 71.693 46.6713 71.6879 45.2004 71.5866V72.9972C45.2004 74.7246 46.3974 76.1263 47.8739 76.1263C49.3493 76.1263 50.5462 74.7246 50.5462 72.9972V71.5301ZM50.6342 29.9898C51.5562 30.8529 51.7065 32.429 50.9683 33.5075L46.62 39.8708H52.8623C53.6841 39.8708 54.4335 40.4223 54.7898 41.2905C55.145 42.1574 55.0448 43.1872 54.5315 43.9387L47.4051 54.3687C46.6668 55.4485 45.3217 55.623 44.3998 54.7599C43.4778 53.8955 43.3285 52.3207 44.0657 51.2409L48.4139 44.8774H42.1716C41.3499 44.8774 40.6005 44.326 40.2453 43.4591C39.889 42.5922 39.9892 41.5624 40.5025 40.8109L47.6289 30.3809C48.3671 29.3011 49.7123 29.1254 50.6342 29.9898Z" fill="#FCA311"/>
<path fill-rule="evenodd" clip-rule="evenodd" d="M57.4477 70.2182L55.891 70.6132V72.9972C55.891 77.0843 53.6596 80.561 50.5462 81.8498V88.2684C50.5462 89.9971 49.3493 91.3975 47.8739 91.3975C46.3974 91.3975 45.2004 89.9971 45.2004 88.2684V81.8498C42.087 80.561 39.8555 77.0843 39.8555 72.9972V70.7876C39.6239 70.7338 39.3912 70.6773 39.1596 70.6183L37.5829 70.2182C29.8887 68.2663 23.8 61.3849 21.8625 52.4502C20.4339 45.8662 20.4339 38.9693 21.8625 32.3854C23.8 23.452 29.8887 16.5692 37.5829 14.6174L39.1596 14.2172C44.6658 12.8207 50.3648 12.8207 55.871 14.2172L57.4477 14.6174C65.1419 16.5692 71.2306 23.4519 73.1681 32.3866C74.5967 38.9693 74.5967 45.8662 73.1681 52.4502C71.2306 61.3849 65.1419 68.2663 57.4477 70.2182ZM50.5462 71.5301C50.2356 71.5583 49.926 71.5814 49.6153 71.6007C48.1444 71.693 46.6713 71.6879 45.2004 71.5866V72.9972C45.2004 74.7246 46.3974 76.1263 47.8739 76.1263C49.3493 76.1263 50.5462 74.7246 50.5462 72.9972V71.5301ZM50.6342 29.9898C51.5562 30.8529 51.7065 32.429 50.9683 33.5075L46.62 39.8708H52.8623C53.6841 39.8708 54.4335 40.4223 54.7898 41.2905C55.145 42.1574 55.0448 43.1872 54.5315 43.9387L47.4051 54.3687C46.6668 55.4485 45.3217 55.623 44.3998 54.7599C43.4778 53.8955 43.3285 52.3207 44.0657 51.2409L48.4139 44.8774H42.1716C41.3499 44.8774 40.6005 44.326 40.2453 43.4591C39.889 42.5922 39.9892 41.5624 40.5025 40.8109L47.6289 30.3809C48.3671 29.3011 49.7123 29.1254 50.6342 29.9898Z" fill="url(#paint0_linear_103_904)"/>
<defs>
<linearGradient id="paint0_linear_103_904" x1="20.7914" y1="12.8078" x2="77.2989" y2="88.7591" gradientUnits="userSpaceOnUse">
<stop stop-color="#09C6F9"/>
<stop offset="1" stop-color="#045DE9"/>
</linearGradient>
</defs>
</svg>
