<svg width="44" height="46" viewBox="0 0 44 46" fill="none" xmlns="http://www.w3.org/2000/svg">
<path d="M21.1933 43.1233C31.0327 43.1233 39.0092 33.9368 39.0092 22.6045C39.0092 11.2723 31.0327 2.08569 21.1933 2.08569C11.3538 2.08569 3.37732 11.2723 3.37732 22.6045C3.37732 33.9368 11.3538 43.1233 21.1933 43.1233Z" fill="#FCA311"/>
<path d="M21.1933 43.1233C31.0327 43.1233 39.0092 33.9368 39.0092 22.6045C39.0092 11.2723 31.0327 2.08569 21.1933 2.08569C11.3538 2.08569 3.37732 11.2723 3.37732 22.6045C3.37732 33.9368 11.3538 43.1233 21.1933 43.1233Z" fill="url(#paint0_linear_105_923)"/>
<path d="M16.6602 27.7343V16.9619H18.3705V26.1954H22.5127V27.7343H16.6602ZM24.0204 27.7343V16.9619H25.7307V27.7343H24.0204Z" fill="white"/>
<defs>
<linearGradient id="paint0_linear_105_923" x1="3.37732" y1="1.89589" x2="30.3651" y2="47.9934" gradientUnits="userSpaceOnUse">
<stop stop-color="#09C6F9"/>
<stop offset="1" stop-color="#045DE9"/>
</linearGradient>
</defs>
</svg>
