<svg width="633" height="417" viewBox="0 0 633 417" fill="none" xmlns="http://www.w3.org/2000/svg">
<path d="M556.1 157.079C541.23 176.775 516.23 188.476 490.11 188.476C447.67 188.476 409.93 156.079 409.93 113.685C409.93 78.714 429.06 53.634 455.39 42.089C462.63 38.929 470.28 36.798 478.11 35.758C482.09 35.222 486.1 34.954 490.11 34.955C500.37 34.955 510.53 36.978 520.01 40.908C548.1 52.516 568.54 79.87 569.96 111.716C570.75 129.356 565.4 144.777 556.1 157.079Z" fill="#657285"/>
<path d="M445.91 118.454C445.91 118.454 448.91 125.383 445.91 129.189C442.92 132.996 442.65 140.196 448.64 144.951C454.62 149.705 457.2 150.115 455.84 154.87C454.48 159.625 453.06 165.435 455.3 167.88C457.54 170.326 458.46 176.136 463.46 176.563C468.46 176.991 463.06 172.587 466.32 168.509C469.59 164.432 482.23 163.619 481.01 155.568C479.79 147.517 491.42 146.802 493.05 141.502C494.69 136.202 487.75 132.944 481.93 133.35C476.1 133.757 479.68 124.688 473.36 123.361C467.03 122.035 464.07 116.943 460.4 117.554C456.73 118.165 452.65 112.966 448.46 114.599C444.28 116.231 445.91 118.454 445.91 118.454Z" fill="#B8C1C9"/>
<path d="M435.3 63.012C435.3 63.012 430.95 66.408 429.74 71.844C428.53 77.279 422.39 80.676 421.44 88.168C420.49 95.659 424.81 95.843 423.28 99.921C421.75 103.998 423.65 106.037 428.31 108.076C432.97 110.115 433.38 113.247 436.13 114.279C438.89 115.311 438.17 118.061 439.09 118.367C440.01 118.673 439.6 116.283 440.56 113.157C441.51 110.031 442.32 108.739 438.86 108.875C435.39 109.01 436.47 106.225 437.83 104.46C439.19 102.696 435.93 102.422 434.84 102.693C433.75 102.963 434.03 107.993 431.78 105.613C429.53 103.234 428.45 100.518 430.28 97.392C432.12 94.267 436.06 96.851 438.86 93.113C441.65 89.376 445.59 90.87 445.81 93.86C446.03 96.851 451.59 96.917 452.54 92.978C453.5 89.039 453.09 82.173 458.8 81.055C464.52 79.936 475.75 74.226 468.6 71.882C461.46 69.538 464.31 64.644 460.64 64.936C456.97 65.227 458.4 70.746 454.31 69.103C450.23 67.461 447.27 63.091 452.99 61.869C458.71 60.646 461.05 54.329 456.66 54.735C452.27 55.141 451.56 50.862 448.91 51.373C446.25 51.884 443.5 58.319 440.75 59.931C437.99 61.542 435.3 63.012 435.3 63.012Z" fill="#B8C1C9"/>
<path d="M472.1 50.442C472.1 50.442 477.75 48.879 480.2 50.442C482.65 52.005 486.46 56.42 483.26 58.052C480.06 59.684 476.72 60.226 478.29 63.282C479.85 66.339 473.8 67.36 472.1 63.282C470.4 59.205 470.4 57.725 468.63 55.808C466.85 53.891 467.61 49.831 472.1 50.442Z" fill="#B8C1C9"/>
<path d="M556.1 157.079C532.75 150.959 552.12 141.356 543.93 130.304C539.27 124.011 547.57 116.432 542.26 115.39C539.18 114.786 532.09 122.646 528.01 115.39C523.92 108.135 516.62 108.097 514.49 112.487C512.37 116.877 503.41 119.919 497.53 116.735C491.66 113.55 495.06 109.302 489.97 105.968C484.89 102.633 484.51 97.326 489.97 93.232C495.44 89.137 492.93 83.222 501.13 85.042C509.33 86.862 507.74 67.982 507.74 67.982C507.61 64.679 510.81 64.113 508.99 61.035C507.17 57.958 502.04 60.466 499.31 53.641C496.58 46.816 503.64 42.721 509.33 43.388C510.99 43.583 515.02 42.423 520.02 40.905C548.12 52.512 568.56 79.867 569.98 111.712C570.75 129.356 565.4 144.777 556.1 157.079Z" fill="#B8C1C9"/>
<path d="M447.58 102.859C447.58 102.859 452.29 100.237 454.79 102.321C457.3 104.405 458.38 105.794 462.07 105.005C465.77 104.217 468.28 105.7 465.9 106.791C463.52 107.881 457.9 109.771 455.34 107.506C452.77 105.242 445.37 103.773 447.58 102.859Z" fill="#B8C1C9"/>
<path d="M466.55 111.323C466.55 111.323 469.89 111.917 470.67 110.545C471.44 109.173 469.89 110.486 468.61 109.771C467.33 109.055 464.88 109.771 466.55 111.323Z" fill="#B8C1C9"/>
<path d="M346.15 388.215C491.47 388.215 609.28 376.37 609.28 361.76C609.28 347.149 491.47 335.305 346.15 335.305C200.828 335.305 83.02 347.149 83.02 361.76C83.02 376.37 200.828 388.215 346.15 388.215Z" fill="#EAEAEA"/>
<g opacity="0.6">
<path d="M477.2 238.542C507.3 207.808 549.54 171.51 567.92 187.782C590.07 207.402 536.28 232.085 495.83 257.363C481.32 266.432 458.01 258.131 477.2 238.542Z" fill="#D5D6DA"/>
</g>
<path d="M440 251.32C440 251.32 593.65 191.929 613.93 239.4C634.21 286.871 499.02 253.553 455.03 272.43L440 251.32Z" fill="#B8C1C9"/>
<path d="M448.31 263.188C478.44 249.601 515.61 245.301 541.49 244.085C569.54 242.769 590.71 244.697 590.92 244.714L591.04 243.401C590.84 243.38 569.57 241.446 541.43 242.765C515.44 243.985 478.09 248.322 447.76 261.982L448.31 263.188Z" fill="white"/>
<path d="M545.58 349.114C526.3 340.494 510.55 367.682 495.02 349.093C481.9 333.363 481.64 330.894 472.69 331.432C469.62 331.631 466.6 332.265 463.71 333.314C460.24 334.551 454.38 335.815 448.88 333.092C415.29 316.459 406.95 242.64 455.82 241.213C459.35 241.109 463.12 242.831 467.13 244.919C488.97 256.252 488.47 269.721 520.88 257.988C553.29 246.256 549.9 294.717 563.9 303.202C577.89 311.687 592.38 316.268 592.38 337.68C592.38 359.092 564.86 357.748 545.58 349.114Z" fill="#D5D6DA"/>
<g opacity="0.5">
<path d="M441.77 280.147L441.82 278.758C442.43 278.782 504.06 282.009 591.83 343.359L591.03 344.495C503.6 283.377 442.37 280.171 441.77 280.147Z" fill="white"/>
<path d="M519.94 286.291C516.09 267.703 520.06 258.11 520.24 257.71L521.51 258.256C521.48 258.349 517.55 267.897 521.3 286.01L519.94 286.291Z" fill="white"/>
<path d="M513.03 299.802C513.98 291.814 520.25 283.936 531.17 276.99C536.31 273.752 541.77 271.026 547.44 268.852L547.91 270.158C547.6 270.269 516.59 281.62 514.41 299.969L513.03 299.802Z" fill="white"/>
<path d="M537.17 314.532C536.65 312.406 536.47 311.131 536.45 311.058L537.84 310.867C537.88 311.135 541.91 337.958 565.2 353.994L564.41 355.133C545.63 342.223 539.11 322.461 537.17 314.532Z" fill="white"/>
<path d="M529.32 348.614C528.39 339 531.17 332.123 533.66 328.046C536.38 323.607 539.29 321.474 539.41 321.384L540.22 322.52C540.11 322.6 528.98 330.894 530.69 348.489L529.32 348.614Z" fill="white"/>
</g>
<path d="M181.535 39.252C181.535 39.252 186.402 29.902 198.708 31.072C211.013 32.243 209.549 41.617 215.397 40.738C221.246 39.859 229.462 40.738 231.221 46.594C232.981 52.45 240.891 49.23 241.186 54.207C241.482 59.184 232.101 62.703 221.256 58.309C210.411 53.915 205.14 61.72 189.9 60.306C174.66 58.892 172.772 57.135 163.753 58.014C154.734 58.892 154.949 52.724 159.052 48.636C163.155 44.548 179.775 44.913 181.535 39.252Z" fill="#EAEAEA"/>
<path d="M169.08 101.408C166.267 104.69 164.383 104.773 163.096 103.672C161.81 102.571 161.601 100.699 164.414 97.42C169.543 91.44 174.355 90.543 174.355 90.543C174.355 90.543 174.285 95.336 169.08 101.408Z" fill="#D5D6DA"/>
<path d="M178.04 127.956C176.437 131.975 174.685 132.659 173.11 132.034C171.535 131.409 170.732 129.703 172.331 125.688C175.245 118.37 179.508 115.963 179.508 115.963C179.508 115.963 180.996 120.531 178.04 127.956Z" fill="#D5D6DA"/>
<path d="M200.168 197.458L199.375 197.656C199.344 197.534 196.19 185.229 186.117 169.086C176.823 154.189 159.57 132.881 130.137 115.946L130.548 115.251C160.13 132.27 177.487 153.696 186.82 168.679C196.976 184.93 200.168 197.333 200.168 197.458Z" fill="#D5D6DA"/>
<path d="M161.858 138.629L161.062 138.435C168.072 109.555 149.025 83.972 148.83 83.715L149.484 83.222C149.678 83.479 168.962 109.364 161.858 138.629Z" fill="#D5D6DA"/>
<path d="M145.867 130.106C140.946 131.73 135.678 132.005 130.614 130.901L130.822 130.113C130.916 130.137 140.273 132.544 149.049 127.828L149.438 128.547C148.292 129.162 147.098 129.684 145.867 130.106Z" fill="#D5D6DA"/>
<path d="M192.866 180.467C176.333 184.135 160.766 180.814 146.601 170.624C146.257 170.36 145.898 170.115 145.527 169.891C145.558 169.898 145.59 169.898 145.62 169.891V169.075C145.864 169.075 146.066 169.211 147.088 169.95C161.058 180.023 176.403 183.273 192.696 179.675L192.866 180.467Z" fill="#D5D6DA"/>
<path d="M167.484 179.884L166.667 179.939C165.919 168.856 154.014 156.28 153.892 156.155L154.487 155.589C156.74 158.038 158.811 160.649 160.683 163.4C163.576 167.616 167.095 173.924 167.484 179.884Z" fill="#D5D6DA"/>
<path d="M128.162 111.827C133.531 114.109 134.591 116.054 133.927 117.613C133.263 119.173 131.146 119.756 125.756 117.474C115.972 113.307 112.446 108.482 112.446 108.482C112.446 108.482 118.232 107.611 128.162 111.827Z" fill="#D5D6DA"/>
<path d="M131.827 127.675C137.637 128.234 139.233 129.759 139.07 131.454C138.906 133.149 137.05 134.344 131.239 133.784C120.655 132.767 115.833 129.221 115.833 129.221C115.833 129.221 121.087 126.633 131.827 127.675Z" fill="#D5D6DA"/>
<path d="M155.346 152.845C158.475 155.832 158.451 157.708 157.279 158.941C156.107 160.173 154.226 160.267 151.097 157.28C145.401 151.834 144.769 146.986 144.769 146.986C144.769 146.986 149.563 147.319 155.346 152.845Z" fill="#D5D6DA"/>
<path d="M149.539 115.04C151.844 118.697 151.364 120.517 149.928 121.42C148.492 122.323 146.646 121.969 144.337 118.294C140.137 111.629 140.707 106.773 140.707 106.773C140.707 106.773 145.276 108.277 149.539 115.04Z" fill="#D5D6DA"/>
<path d="M176.326 172.26C177.512 176.428 176.542 178.033 174.907 178.512C173.273 178.991 171.601 178.116 170.419 173.955C168.263 166.38 170.175 161.879 170.175 161.879C170.175 161.879 174.139 164.574 176.326 172.26Z" fill="#D5D6DA"/>
<path d="M149.859 168.735C153.555 170.986 153.941 172.826 153.058 174.275C152.175 175.723 150.36 176.227 146.664 173.976C139.929 169.874 138.274 165.293 138.274 165.293C138.274 165.293 143.03 164.578 149.859 168.735Z" fill="#D5D6DA"/>
<path d="M150.036 79.5259C153.166 84.4439 152.943 86.6459 151.514 87.5559C150.085 88.4659 147.988 87.7399 144.856 82.8219C139.143 73.8619 138.972 67.8879 138.972 67.8879C138.972 67.8879 144.244 70.4369 150.036 79.5259Z" fill="#D5D6DA"/>
<path d="M263.102 304.345C263.102 304.345 179.702 167.057 143.26 191.06C106.817 215.063 219.546 270.686 242.556 311.42L263.102 304.345Z" fill="#D5D6DA"/>
<path d="M224.292 279.855C224.292 279.855 128.305 178.154 95.3709 207.103C62.4359 236.052 178.263 259.978 205.036 290.532L224.292 279.855Z" fill="#EAEAEA"/>
<path d="M213.572 285.923C195.453 264.487 168.545 247.597 149.16 237.201C128.145 225.935 111.212 219.669 111.042 219.606L111.431 218.564C111.601 218.627 128.607 224.92 149.678 236.226C169.15 246.666 196.187 263.636 214.417 285.197L213.572 285.923Z" fill="white"/>
<path d="M109.585 319.338C131.187 323.534 128.301 356.126 152.679 349.576C177.056 343.025 174.994 341.487 187.004 351.872C187.004 351.872 191.813 362.051 201.608 363.555C240.202 369.484 291.583 311.565 250.801 281.109C247.855 278.911 243.62 278.129 238.937 277.497C213.527 274.083 205.881 285.864 185.3 256.474C164.72 227.084 138.538 270.398 121.525 269.252C104.512 268.106 89.432 263.347 76.581 281.592C63.73 299.837 87.978 315.16 109.585 319.338Z" fill="#B8C1C9"/>
<path d="M239.41 322.697L240.192 321.481C239.657 321.134 185.199 287 73.625 286.75V288.198C184.779 288.445 238.874 322.353 239.41 322.697Z" fill="white"/>
<path d="M169.111 281.151C183.537 267.606 185.905 257.061 185.999 256.62L184.58 256.318C184.56 256.422 182.178 266.907 168.117 280.095L169.111 281.151Z" fill="white"/>
<path d="M166.893 296.798C170.871 289.434 170.259 278.959 165.12 266.505C162.679 260.666 159.668 255.082 156.131 249.833L154.949 250.663C155.147 250.945 174.768 279.182 165.62 296.113L166.893 296.798Z" fill="white"/>
<path d="M137.491 294.908C139.209 293.408 140.137 292.435 140.179 292.39L139.136 291.404C138.941 291.609 119.418 312.041 89.957 311.781V313.226C113.67 313.437 131.083 300.5 137.491 294.908Z" fill="white"/>
<path d="M123.74 328.64C130.297 320.999 132.057 313.486 132.377 308.519C132.724 303.112 131.518 299.548 131.469 299.399L130.099 299.871C130.144 300.007 134.651 313.729 122.641 327.698L123.74 328.64Z" fill="white"/>
<path d="M398.38 322.937V278.55H308.749V322.937C308.749 334.471 301.064 343.821 291.586 343.821H287.973V349.552H419.16V343.821H415.55C406.07 343.821 398.38 334.471 398.38 322.937Z" fill="#00A3FE"/>
<path d="M418.42 349.552H288.707C287.946 349.552 287.217 349.25 286.679 348.712C286.141 348.175 285.838 347.446 285.838 346.686C285.838 345.926 286.141 345.197 286.679 344.66C287.217 344.123 287.946 343.821 288.707 343.821H418.42C419.19 343.821 419.91 344.123 420.45 344.66C420.99 345.197 421.29 345.926 421.29 346.686C421.29 347.446 420.99 348.175 420.45 348.712C419.91 349.25 419.19 349.552 418.42 349.552Z" fill="#016EB9"/>
<path d="M506.24 305.8L203.141 302.327C200.023 302.29 197.045 301.027 194.853 298.812C192.661 296.597 191.431 293.608 191.43 290.494V105.7C191.431 102.593 192.654 99.612 194.837 97.398C197.019 95.185 199.986 93.918 203.096 93.871L502.29 89.293C505.42 89.245 508.44 90.438 510.7 92.611C512.95 94.783 514.25 97.759 514.31 100.886L518.22 293.727C518.25 295.312 517.97 296.888 517.38 298.36C516.79 299.832 515.91 301.171 514.79 302.297C513.67 303.423 512.34 304.314 510.87 304.915C509.41 305.517 507.83 305.818 506.24 305.8Z" fill="#016EB9"/>
<path d="M495.98 107.909H209.528C206.02 107.909 203.176 110.75 203.176 114.255V262.806C203.176 266.31 206.02 269.151 209.528 269.151H495.98C499.48 269.151 502.33 266.31 502.33 262.806V114.255C502.33 110.75 499.48 107.909 495.98 107.909Z" fill="#EAEAEA"/>
<path d="M384 57.5171L387.76 57.4161C388.11 57.4071 388.44 57.3311 388.76 57.1921C389.07 57.0521 389.35 56.8531 389.59 56.6041C389.82 56.3561 390.01 56.0641 390.13 55.7441C390.25 55.4251 390.31 55.0841 390.3 54.7421L390.18 50.1641C390.16 49.4741 389.87 48.8191 389.37 48.3431C388.86 47.8681 388.19 47.6111 387.5 47.6291L384.84 47.7021C384.28 47.7161 383.73 47.5501 383.27 47.2281C382.81 46.9071 382.47 46.4471 382.29 45.9171C382.22 45.7081 382.15 45.5001 382.07 45.2951C381.89 44.8021 381.87 44.2671 382 43.7591C382.13 43.2521 382.42 42.7971 382.81 42.4541L384.63 40.8631C385.15 40.4071 385.47 39.7641 385.52 39.0731C385.56 38.3831 385.33 37.7031 384.88 37.1821L381.86 33.7401C381.63 33.4821 381.36 33.2711 381.05 33.1191C380.74 32.9671 380.41 32.8771 380.07 32.8541C379.73 32.8311 379.38 32.8761 379.06 32.9861C378.74 33.0951 378.44 33.2681 378.18 33.4931L376.35 35.0841C375.96 35.4301 375.47 35.6481 374.95 35.7101C374.43 35.7721 373.9 35.6751 373.44 35.4311C373.25 35.3301 373.05 35.2301 372.85 35.1361C372.35 34.8921 371.94 34.4921 371.68 33.9951C371.42 33.4981 371.33 32.9311 371.42 32.3781L371.84 29.7491C371.95 29.0671 371.79 28.3691 371.38 27.8091C370.97 27.2491 370.36 26.8721 369.68 26.7621L365.16 26.0331C364.48 25.9241 363.78 26.0901 363.22 26.4951C362.66 26.9001 362.28 27.5111 362.17 28.1931L361.57 31.9131C361.49 32.4011 361.27 32.8561 360.94 33.2251C360.61 33.5941 360.18 33.8611 359.7 33.9971C358.87 34.2341 358.06 34.5301 357.27 34.8821C356.76 35.1151 356.18 35.1781 355.63 35.0611C355.08 34.9441 354.59 34.6541 354.21 34.2331L352.26 32.0031C352.03 31.7451 351.76 31.5341 351.45 31.3821C351.15 31.2301 350.81 31.1401 350.47 31.1171C350.13 31.0941 349.79 31.1391 349.46 31.2491C349.14 31.3581 348.84 31.5311 348.58 31.7571L345.13 34.7711C344.61 35.2271 344.29 35.8701 344.25 36.5601C344.2 37.2501 344.43 37.9291 344.89 38.4491L347.51 41.4501C347.85 41.8231 348.06 42.2831 348.14 42.7751C348.22 43.2681 348.15 43.7721 347.95 44.2291C347.85 44.4511 347.76 44.6771 347.67 44.9021C347.48 45.3741 347.15 45.7801 346.74 46.0701C346.32 46.3591 345.83 46.5201 345.32 46.5311L341.06 46.6431C340.37 46.6621 339.72 46.9541 339.24 47.4571C338.76 47.9591 338.51 48.6291 338.53 49.3201L338.65 53.8981C338.67 54.5891 338.96 55.2431 339.46 55.7191C339.96 56.1941 340.63 56.4511 341.32 56.4331L344.98 56.3361C345.53 56.3221 346.06 56.4801 346.52 56.7871C346.97 57.0941 347.31 57.5361 347.5 58.0481V58.083C347.68 58.577 347.71 59.1141 347.58 59.6241C347.45 60.1341 347.17 60.5921 346.77 60.9381L344.19 63.1961C343.93 63.4211 343.72 63.6961 343.57 64.0031C343.41 64.3101 343.32 64.644 343.3 64.986C343.28 65.328 343.32 65.6711 343.43 65.9951C343.54 66.3201 343.72 66.6201 343.94 66.8771L346.96 70.3231C347.19 70.5801 347.46 70.7911 347.77 70.9431C348.08 71.0941 348.41 71.1841 348.76 71.2071C349.1 71.2291 349.44 71.1841 349.76 71.0741C350.09 70.9641 350.39 70.7911 350.65 70.5661L353.23 68.3081C353.62 67.9601 354.11 67.7411 354.64 67.6791C355.16 67.6171 355.69 67.7151 356.16 67.9611L356.19 67.9821C356.68 68.2351 357.07 68.6331 357.31 69.1211C357.56 69.6091 357.65 70.1621 357.56 70.7011L356.98 74.3031C356.93 74.6411 356.94 74.9871 357.02 75.3201C357.1 75.6541 357.24 75.9691 357.44 76.2461C357.64 76.5241 357.9 76.7601 358.19 76.9391C358.48 77.1191 358.81 77.2391 359.14 77.2931L363.66 78.0191C364.35 78.1281 365.05 77.9621 365.61 77.5571C366.17 77.1521 366.54 76.5411 366.66 75.8591L367.33 71.6631C367.41 71.1621 367.63 70.6941 367.98 70.3191C368.32 69.9431 368.76 69.6771 369.26 69.5521C369.49 69.4931 369.73 69.43 369.95 69.361C370.43 69.223 370.94 69.2261 371.41 69.3671C371.89 69.5091 372.31 69.7841 372.64 70.1591L375.27 73.1601C375.49 73.4181 375.77 73.6291 376.07 73.7801C376.38 73.9321 376.72 74.0221 377.06 74.0441C377.4 74.0671 377.74 74.0221 378.07 73.9121C378.39 73.8021 378.69 73.6291 378.95 73.4031L382.4 70.3891C382.66 70.1631 382.87 69.8891 383.02 69.5821C383.18 69.2751 383.26 68.9421 383.29 68.6001C383.31 68.2581 383.27 67.9161 383.15 67.5911C383.04 67.2671 382.87 66.9681 382.65 66.7101L380.69 64.4771C380.32 64.0541 380.1 63.5231 380.06 62.9631C380.01 62.4031 380.15 61.8451 380.45 61.3691C380.9 60.6391 381.3 59.8791 381.64 59.0941C381.84 58.6331 382.17 58.2391 382.59 57.9591C383.01 57.6801 383.5 57.5261 384 57.5171ZM371.56 59.6531C367.56 63.1571 359.37 62.1611 355.86 58.1601C352.36 54.1581 353.76 47.3931 357.76 43.9201C361.77 40.4461 368.6 42.2941 372.1 46.2951C375.61 50.2961 375.57 56.1491 371.56 59.6501V59.6531Z" fill="#00A3FE"/>
<path d="M364.51 80.926C364.37 80.927 364.22 80.915 364.08 80.891L359.56 80.165C359.21 80.111 358.88 79.987 358.58 79.803C358.28 79.618 358.01 79.376 357.81 79.09C357.6 78.804 357.45 78.48 357.37 78.136C357.29 77.793 357.28 77.437 357.33 77.088L357.91 73.487C358 72.963 357.92 72.426 357.68 71.952C357.44 71.478 357.06 71.09 356.59 70.843H356.55C356.1 70.608 355.59 70.515 355.08 70.577C354.57 70.639 354.09 70.853 353.71 71.191L351.13 73.448C350.86 73.681 350.56 73.859 350.22 73.972C349.89 74.085 349.53 74.131 349.18 74.108C348.83 74.085 348.48 73.993 348.17 73.837C347.85 73.68 347.57 73.464 347.34 73.198L344.32 69.749C344.08 69.484 343.9 69.176 343.79 68.842C343.68 68.507 343.63 68.154 343.65 67.802C343.68 67.45 343.77 67.106 343.93 66.79C344.08 66.474 344.3 66.192 344.57 65.96L347.15 63.703C347.53 63.363 347.81 62.916 347.93 62.421C348.05 61.925 348.03 61.403 347.85 60.924V60.889C347.67 60.393 347.34 59.965 346.9 59.667C346.46 59.369 345.94 59.216 345.41 59.229L341.76 59.326C341.05 59.344 340.36 59.079 339.84 58.588C339.32 58.098 339.02 57.423 339 56.711L338.88 52.133C338.86 51.422 339.13 50.733 339.62 50.217C340.11 49.7 340.78 49.399 341.5 49.379L345.75 49.265C346.24 49.255 346.72 49.1 347.12 48.819C347.53 48.539 347.84 48.145 348.03 47.688C348.12 47.459 348.21 47.233 348.31 47.011C348.5 46.569 348.57 46.082 348.49 45.607C348.42 45.131 348.21 44.687 347.89 44.326L345.26 41.325C344.79 40.789 344.55 40.089 344.6 39.379C344.65 38.668 344.98 38.005 345.51 37.536L348.96 34.521C349.22 34.288 349.53 34.11 349.87 33.997C350.2 33.884 350.55 33.838 350.91 33.861C351.26 33.885 351.6 33.978 351.92 34.134C352.24 34.291 352.52 34.509 352.75 34.775L354.7 37.004C355.06 37.414 355.55 37.697 356.08 37.81C356.62 37.924 357.17 37.861 357.67 37.633C358.46 37.281 359.27 36.983 360.1 36.744C360.57 36.611 360.98 36.35 361.3 35.991C361.63 35.632 361.84 35.19 361.92 34.716L362.52 30.996C362.63 30.293 363.02 29.664 363.6 29.247C364.17 28.83 364.89 28.66 365.6 28.773L370.12 29.499C370.82 29.613 371.45 30.002 371.87 30.579C372.29 31.157 372.46 31.876 372.35 32.58L371.92 35.205C371.83 35.742 371.92 36.293 372.17 36.776C372.42 37.259 372.82 37.647 373.31 37.883C373.51 37.977 373.71 38.078 373.9 38.178C374.35 38.412 374.86 38.504 375.37 38.442C375.87 38.38 376.35 38.167 376.73 37.831L378.55 36.24C379.09 35.772 379.79 35.536 380.5 35.583C381.21 35.631 381.87 35.958 382.34 36.494L385.36 39.936C385.59 40.201 385.77 40.509 385.89 40.843C386 41.177 386.05 41.53 386.02 41.882C386 42.234 385.91 42.578 385.75 42.894C385.59 43.21 385.38 43.493 385.11 43.725L383.29 45.319C382.91 45.652 382.63 46.094 382.5 46.585C382.38 47.077 382.4 47.596 382.57 48.073C382.65 48.282 382.72 48.49 382.79 48.698C382.96 49.216 383.29 49.665 383.74 49.978C384.18 50.291 384.72 50.452 385.26 50.435L387.93 50.362C388.64 50.344 389.33 50.609 389.85 51.099C390.36 51.588 390.66 52.263 390.68 52.974L390.81 57.552C390.83 58.263 390.56 58.952 390.07 59.468C389.58 59.985 388.91 60.286 388.2 60.306L384.43 60.41C383.94 60.425 383.48 60.577 383.08 60.847C382.68 61.118 382.36 61.496 382.17 61.938C381.82 62.729 381.42 63.494 380.97 64.227C380.68 64.688 380.54 65.23 380.59 65.773C380.63 66.316 380.84 66.831 381.2 67.242L383.16 69.475C383.39 69.74 383.57 70.049 383.68 70.383C383.79 70.717 383.84 71.07 383.82 71.421C383.79 71.773 383.7 72.117 383.55 72.433C383.39 72.75 383.17 73.032 382.91 73.264L379.44 76.272C379.18 76.505 378.87 76.683 378.53 76.796C378.2 76.909 377.85 76.955 377.49 76.932C377.14 76.908 376.8 76.815 376.48 76.659C376.16 76.502 375.88 76.284 375.65 76.018L373.02 73.018C372.71 72.655 372.29 72.389 371.83 72.252C371.37 72.115 370.88 72.112 370.41 72.243C370.18 72.313 369.94 72.379 369.72 72.438C369.24 72.558 368.81 72.816 368.48 73.18C368.14 73.544 367.93 73.997 367.85 74.483L367.18 78.679C367.07 79.309 366.75 79.881 366.26 80.293C365.77 80.704 365.15 80.929 364.51 80.926ZM355.38 70.368C355.81 70.367 356.24 70.472 356.62 70.673L356.66 70.691C357.15 70.955 357.55 71.367 357.8 71.871C358.05 72.374 358.14 72.943 358.05 73.497L357.47 77.099C357.36 77.759 357.52 78.435 357.91 78.979C358.3 79.522 358.89 79.889 359.55 79.999L364.07 80.721C364.73 80.827 365.41 80.668 365.95 80.277C366.5 79.887 366.86 79.297 366.97 78.637L367.65 74.442C367.73 73.924 367.96 73.443 368.31 73.056C368.66 72.669 369.12 72.395 369.63 72.267C369.86 72.208 370.1 72.146 370.33 72.076C370.82 71.934 371.35 71.936 371.84 72.082C372.33 72.227 372.77 72.511 373.11 72.9L375.74 75.9C375.96 76.15 376.22 76.355 376.52 76.502C376.82 76.649 377.14 76.736 377.47 76.758C377.81 76.78 378.14 76.737 378.45 76.63C378.77 76.523 379.06 76.356 379.31 76.137L382.76 73.122C383.26 72.681 383.57 72.057 383.62 71.388C383.66 70.719 383.44 70.06 383 69.555L381.04 67.322C380.66 66.886 380.43 66.339 380.38 65.762C380.34 65.185 380.48 64.609 380.79 64.119C381.24 63.392 381.64 62.634 381.98 61.851C382.19 61.382 382.52 60.981 382.94 60.693C383.37 60.406 383.87 60.245 384.38 60.229L388.14 60.125C388.81 60.106 389.45 59.822 389.91 59.336C390.37 58.85 390.62 58.201 390.6 57.531L390.48 52.957C390.46 52.286 390.18 51.65 389.69 51.189C389.21 50.727 388.56 50.477 387.89 50.494L385.22 50.567C384.64 50.583 384.08 50.413 383.6 50.082C383.13 49.751 382.78 49.277 382.6 48.73C382.53 48.521 382.46 48.316 382.38 48.112C382.2 47.604 382.17 47.053 382.31 46.53C382.44 46.007 382.73 45.538 383.14 45.184L384.96 43.593C385.21 43.374 385.42 43.108 385.56 42.81C385.71 42.512 385.8 42.188 385.82 41.857C385.84 41.525 385.8 41.192 385.69 40.878C385.59 40.563 385.42 40.272 385.2 40.023L382.18 36.577C381.74 36.075 381.11 35.768 380.44 35.723C379.77 35.679 379.11 35.901 378.61 36.341L376.79 37.932C376.38 38.288 375.88 38.513 375.34 38.578C374.81 38.643 374.26 38.545 373.78 38.296C373.59 38.196 373.4 38.095 373.2 38.001C372.68 37.751 372.25 37.339 371.99 36.827C371.72 36.315 371.63 35.73 371.72 35.16L372.15 32.534C372.25 31.874 372.09 31.197 371.7 30.654C371.31 30.11 370.72 29.743 370.06 29.634L365.54 28.905C364.88 28.8 364.2 28.959 363.66 29.35C363.12 29.74 362.75 30.329 362.64 30.989L362.04 34.709C361.95 35.213 361.73 35.683 361.39 36.065C361.05 36.446 360.6 36.724 360.11 36.865C359.29 37.102 358.48 37.397 357.7 37.748C357.17 37.988 356.58 38.053 356.02 37.931C355.45 37.81 354.94 37.509 354.55 37.074L352.6 34.844C352.38 34.594 352.12 34.39 351.82 34.242C351.52 34.095 351.2 34.008 350.86 33.986C350.53 33.964 350.2 34.008 349.89 34.114C349.57 34.221 349.28 34.389 349.03 34.608L345.58 37.623C345.08 38.064 344.77 38.688 344.73 39.357C344.68 40.025 344.9 40.684 345.34 41.19L347.97 44.19C348.31 44.574 348.53 45.045 348.61 45.55C348.69 46.055 348.63 46.573 348.42 47.042C348.33 47.261 348.23 47.486 348.14 47.712C347.95 48.201 347.61 48.621 347.18 48.919C346.74 49.218 346.23 49.382 345.71 49.39L341.45 49.504C341.12 49.513 340.79 49.587 340.49 49.722C340.19 49.857 339.91 50.05 339.68 50.291C339.46 50.532 339.28 50.816 339.16 51.126C339.04 51.436 338.98 51.767 338.99 52.099L339.11 56.676C339.13 57.347 339.42 57.983 339.9 58.444C340.39 58.906 341.04 59.156 341.71 59.139L345.37 59.042C345.93 59.026 346.48 59.188 346.95 59.504C347.41 59.82 347.77 60.274 347.96 60.803V60.83C348.15 61.34 348.18 61.895 348.04 62.421C347.91 62.947 347.62 63.421 347.21 63.779L344.62 66.037C344.37 66.255 344.17 66.521 344.02 66.819C343.87 67.117 343.79 67.441 343.77 67.773C343.74 68.104 343.79 68.437 343.89 68.752C344 69.067 344.17 69.357 344.39 69.607L347.41 73.052C347.63 73.303 347.89 73.507 348.19 73.654C348.49 73.802 348.82 73.889 349.15 73.911C349.48 73.933 349.81 73.889 350.13 73.782C350.44 73.675 350.73 73.508 350.98 73.289L353.56 71.031C354.06 70.594 354.71 70.357 355.38 70.368Z" fill="#131F2D"/>
<g opacity="0.6">
<path d="M474.68 127.029H230.495C227.003 127.029 224.173 129.856 224.173 133.343V174.827C224.173 178.314 227.003 181.141 230.495 181.141H474.68C478.17 181.141 481 178.314 481 174.827V133.343C481 129.856 478.17 127.029 474.68 127.029Z" fill="#D5D6DA"/>
</g>
<g opacity="0.6">
<path d="M477.16 197.656H359.25C359.01 197.656 358.77 197.609 358.55 197.517C358.33 197.425 358.13 197.29 357.96 197.121C357.79 196.951 357.65 196.749 357.56 196.528C357.47 196.306 357.42 196.069 357.42 195.829V194.752C357.42 194.511 357.47 194.272 357.56 194.05C357.66 193.827 357.79 193.625 357.96 193.456C358.14 193.286 358.34 193.151 358.56 193.06C358.79 192.969 359.02 192.924 359.27 192.925L477.18 194.012C477.66 194.017 478.12 194.211 478.46 194.552C478.8 194.894 478.99 195.355 478.99 195.836C478.99 196.319 478.8 196.782 478.45 197.123C478.11 197.464 477.65 197.656 477.16 197.656Z" fill="#D5D6DA"/>
</g>
<path d="M468.34 151.959H389.22V148.962L468.34 149.663V151.959Z" fill="#657285"/>
<path d="M424.56 158.704H389.22V155.707L424.56 156.412V158.704Z" fill="#00A3FE"/>
<path d="M436.03 173.299H389.22V170.298L436.03 171.003V173.299Z" fill="#00A3FE"/>
<path d="M424.56 166.533H389.22V163.535L424.56 164.24V166.533Z" fill="#5C305D"/>
<path d="M450.33 166.533H429.62V163.535L450.33 164.24V166.533Z" fill="#657285"/>
<path d="M464.95 158.704H429.62V155.707L464.95 156.412V158.704Z" fill="#00A3FE"/>
<g opacity="0.6">
<path d="M477.34 208.155L359.12 209.545C358.9 209.547 358.68 209.506 358.47 209.423C358.27 209.341 358.08 209.218 357.93 209.063C357.77 208.907 357.64 208.722 357.56 208.518C357.47 208.314 357.43 208.095 357.43 207.874V206.485C357.43 206.043 357.61 205.619 357.92 205.306C358.23 204.993 358.66 204.818 359.1 204.818H477.32C477.76 204.818 478.19 204.993 478.5 205.306C478.81 205.618 478.99 206.042 478.99 206.485C478.99 206.924 478.82 207.346 478.51 207.659C478.2 207.971 477.78 208.15 477.34 208.155Z" fill="#D5D6DA"/>
</g>
<g opacity="0.6">
<path d="M289.757 244.842H225.057V240.994L288.704 241.869C289.237 241.877 289.746 242.094 290.12 242.473C290.495 242.853 290.704 243.365 290.703 243.898C290.703 244.148 290.603 244.389 290.426 244.566C290.248 244.743 290.008 244.842 289.757 244.842Z" fill="#D5D6DA"/>
</g>
<g opacity="0.6">
<path d="M309.98 254.244L226.121 255.363C225.982 255.365 225.844 255.341 225.715 255.289C225.586 255.238 225.469 255.162 225.369 255.065C225.27 254.968 225.192 254.852 225.138 254.724C225.084 254.597 225.057 254.459 225.057 254.321V252.619C225.057 252.343 225.167 252.077 225.362 251.882C225.558 251.687 225.823 251.577 226.1 251.577H309.959C310.235 251.577 310.501 251.687 310.696 251.882C310.892 252.077 311.002 252.343 311.002 252.619V253.202C311.002 253.475 310.895 253.737 310.704 253.932C310.512 254.127 310.253 254.239 309.98 254.244Z" fill="#D5D6DA"/>
</g>
<g opacity="0.6">
<path d="M376.8 254.255L318.133 255.352C317.954 255.355 317.776 255.323 317.609 255.257C317.443 255.19 317.291 255.092 317.163 254.966C317.036 254.841 316.934 254.691 316.865 254.526C316.795 254.361 316.76 254.184 316.76 254.005V252.911C316.76 252.553 316.902 252.21 317.155 251.958C317.408 251.705 317.751 251.563 318.109 251.563H376.8C377.16 251.564 377.5 251.706 377.75 251.959C378 252.212 378.15 252.554 378.15 252.911C378.15 253.267 378 253.609 377.75 253.861C377.5 254.113 377.16 254.255 376.8 254.255Z" fill="#D5D6DA"/>
</g>
<g opacity="0.6">
<path d="M477.34 223.357L359.12 224.747C358.9 224.749 358.68 224.708 358.47 224.625C358.27 224.543 358.08 224.42 357.93 224.265C357.77 224.109 357.64 223.924 357.56 223.72C357.47 223.516 357.43 223.297 357.43 223.076V221.687C357.43 221.245 357.61 220.821 357.92 220.508C358.23 220.195 358.66 220.02 359.1 220.02H477.32C477.76 220.02 478.19 220.195 478.5 220.508C478.81 220.82 478.99 221.244 478.99 221.687C478.99 222.126 478.82 222.548 478.51 222.861C478.2 223.173 477.78 223.352 477.34 223.357Z" fill="#D5D6DA"/>
</g>
<path d="M277.869 188.528H229.737C226.664 188.528 224.173 191.016 224.173 194.085V224.153C224.173 227.222 226.664 229.71 229.737 229.71H277.869C280.942 229.71 283.432 227.222 283.432 224.153V194.085C283.432 191.016 280.942 188.528 277.869 188.528Z" fill="#D5D6DA"/>
<g opacity="0.6">
<path d="M339.68 188.528H296.12C293.506 188.528 291.388 190.645 291.388 193.255V224.983C291.388 227.593 293.506 229.71 296.12 229.71H339.68C342.29 229.71 344.41 227.593 344.41 224.983V193.255C344.41 190.645 342.29 188.528 339.68 188.528Z" fill="#D5D6DA"/>
</g>
<path d="M279.507 252.591C279.19 269.738 277.952 293.21 274.051 313.792C267.553 348.135 227.539 371.696 220.157 375.784C219.797 375.983 219.395 376.095 218.984 376.111C218.573 376.126 218.164 376.046 217.79 375.875C155.203 347.155 156.18 303.511 156.18 303.511V252.251C156.18 251.559 156.452 250.894 156.938 250.401C157.424 249.908 158.085 249.626 158.777 249.615C168.308 249.458 201.545 247.666 216.072 230.623C216.309 230.348 216.601 230.125 216.929 229.969C217.257 229.812 217.614 229.725 217.978 229.714C218.341 229.702 218.703 229.765 219.04 229.901C219.378 230.036 219.684 230.239 219.938 230.498C226.197 236.851 246.6 254.463 279.395 252.598L279.507 252.591Z" fill="#00A3FE"/>
<path d="M218.833 367.438C218.792 367.437 218.752 367.429 218.714 367.414C205.954 361.669 195.119 354.737 186.503 346.797C179.608 340.445 174.115 333.436 170.161 325.958C163.444 313.233 163.583 303.442 163.583 303.344V260.381C163.575 259.209 164.027 258.08 164.842 257.236C165.657 256.392 166.77 255.901 167.943 255.866C172.623 255.706 181.889 255.088 191.326 252.713C202.584 249.878 210.884 245.419 216.013 239.466C216.252 239.184 216.547 238.956 216.88 238.795C217.213 238.634 217.575 238.545 217.945 238.532C218.314 238.52 218.682 238.585 219.025 238.723C219.367 238.861 219.677 239.069 219.935 239.334C223.412 242.904 232.762 251.58 244.736 255.001C252.179 257.077 259.839 258.278 267.56 258.582C268.705 258.63 269.785 259.124 270.57 259.958C271.354 260.793 271.78 261.901 271.756 263.045C271.256 283.078 269.802 299.222 267.306 312.399C265.866 319.995 262.438 327.618 257.083 335.051C252.81 340.987 247.32 346.818 240.762 352.382C234.021 358.105 226.72 363.134 218.968 367.393C218.927 367.419 218.881 367.435 218.833 367.438ZM218.036 239.115H217.967C217.676 239.125 217.39 239.195 217.127 239.321C216.865 239.446 216.631 239.624 216.44 239.844C211.253 245.895 202.856 250.413 191.479 253.275C181.99 255.665 172.682 256.286 167.974 256.446C166.952 256.477 165.983 256.905 165.272 257.64C164.562 258.374 164.166 259.357 164.17 260.378V303.362C164.17 303.466 164.035 313.135 170.697 325.739C174.608 333.141 180.064 340.091 186.914 346.394C195.45 354.254 206.183 361.131 218.822 366.831C226.493 362.601 233.722 357.617 240.401 351.951C250.637 343.269 263.519 329.331 266.743 312.302C269.232 299.159 270.682 283.044 271.183 263.042C271.199 262.048 270.828 261.088 270.147 260.363C269.466 259.639 268.529 259.208 267.535 259.162C259.772 258.855 252.071 257.646 244.587 255.561C232.48 252.087 223.029 243.345 219.532 239.74C219.338 239.54 219.105 239.382 218.848 239.274C218.591 239.167 218.315 239.113 218.036 239.115Z" fill="#131F2D"/>
<path d="M232.25 324.52H192.644C190.881 324.519 189.191 323.818 187.945 322.573C186.698 321.328 185.997 319.64 185.996 317.88V293.47C185.997 291.709 186.697 290.02 187.944 288.774C189.19 287.529 190.88 286.828 192.644 286.826H194.876C195.831 282.891 198.083 279.39 201.27 276.887C204.457 274.383 208.393 273.022 212.447 273.022C216.501 273.022 220.438 274.383 223.624 276.887C226.811 279.39 229.063 282.891 230.018 286.826H232.25C234.014 286.828 235.705 287.528 236.952 288.774C238.199 290.02 238.9 291.709 238.902 293.47V317.88C238.899 319.641 238.197 321.329 236.951 322.574C235.704 323.818 234.013 324.519 232.25 324.52ZM192.644 287.396C191.032 287.398 189.487 288.039 188.348 289.178C187.208 290.317 186.568 291.86 186.566 293.47V317.88C186.568 319.489 187.209 321.032 188.348 322.171C189.487 323.309 191.032 323.949 192.644 323.951H232.25C233.862 323.949 235.407 323.309 236.547 322.171C237.687 321.033 238.329 319.49 238.332 317.88V293.47C238.33 291.86 237.689 290.316 236.549 289.177C235.408 288.038 233.863 287.397 232.25 287.396H229.792C229.728 287.396 229.665 287.374 229.615 287.335C229.564 287.295 229.529 287.239 229.514 287.177C228.625 283.32 226.453 279.879 223.353 277.415C220.253 274.951 216.409 273.609 212.447 273.609C208.485 273.609 204.641 274.951 201.541 277.415C198.441 279.879 196.269 283.32 195.38 287.177C195.366 287.24 195.33 287.296 195.28 287.335C195.229 287.375 195.166 287.396 195.102 287.396H192.644ZM225.244 287.396H199.653C199.609 287.396 199.565 287.386 199.525 287.366C199.485 287.346 199.45 287.317 199.424 287.281C199.397 287.245 199.379 287.204 199.371 287.16C199.364 287.116 199.366 287.07 199.379 287.027C200.248 284.244 201.984 281.811 204.335 280.084C206.686 278.356 209.528 277.424 212.447 277.424C215.366 277.424 218.208 278.356 220.559 280.084C222.91 281.811 224.647 284.244 225.515 287.027C225.529 287.07 225.533 287.115 225.526 287.159C225.518 287.203 225.501 287.245 225.474 287.281C225.448 287.317 225.413 287.346 225.373 287.366C225.333 287.386 225.289 287.396 225.244 287.396ZM200.046 286.826H224.855C223.966 284.247 222.293 282.01 220.07 280.426C217.847 278.842 215.185 277.99 212.454 277.99C209.723 277.99 207.061 278.842 204.838 280.426C202.615 282.01 200.942 284.247 200.053 286.826H200.046Z" fill="#131F2D"/>
<path d="M236.107 283.249H198.795C195.025 283.249 191.969 286.301 191.969 290.066V313.556C191.969 317.321 195.025 320.373 198.795 320.373H236.107C239.876 320.373 242.932 317.321 242.932 313.556V290.066C242.932 286.301 239.876 283.249 236.107 283.249Z" fill="#131F2D"/>
<path d="M217.452 305.012C213.931 305.012 210.489 303.97 207.561 302.016C204.632 300.062 202.35 297.285 201.002 294.036C199.654 290.786 199.302 287.21 199.988 283.761C200.675 280.311 202.371 277.142 204.861 274.655C207.351 272.168 210.523 270.474 213.977 269.788C217.43 269.102 221.01 269.454 224.263 270.801C227.516 272.147 230.297 274.427 232.252 277.352C234.208 280.276 235.252 283.715 235.251 287.232C235.246 291.946 233.369 296.465 230.032 299.798C226.695 303.131 222.171 305.006 217.452 305.012ZM217.452 273.843C214.801 273.843 212.209 274.627 210.005 276.098C207.8 277.569 206.081 279.66 205.066 282.106C204.051 284.553 203.785 287.245 204.302 289.842C204.819 292.44 206.095 294.826 207.97 296.699C209.844 298.572 212.232 299.847 214.833 300.364C217.433 300.881 220.128 300.616 222.578 299.603C225.027 298.589 227.121 296.873 228.594 294.671C230.067 292.469 230.853 289.881 230.853 287.232C230.849 283.683 229.436 280.28 226.924 277.77C224.412 275.26 221.006 273.848 217.452 273.843Z" fill="#131F2D"/>
<path d="M217.452 303.261C216.96 303.26 216.489 303.064 216.141 302.717C215.793 302.369 215.597 301.898 215.596 301.406V292.414C215.597 291.923 215.793 291.452 216.141 291.104C216.489 290.756 216.96 290.561 217.452 290.56C217.944 290.562 218.415 290.758 218.762 291.105C219.109 291.453 219.305 291.923 219.306 292.414V301.406C219.305 301.897 219.109 302.368 218.762 302.716C218.415 303.063 217.944 303.259 217.452 303.261Z" fill="#00A3FE"/>
<path d="M217.452 311.413C220.216 311.413 222.456 309.175 222.456 306.415C222.456 303.654 220.216 301.417 217.452 301.417C214.689 301.417 212.449 303.654 212.449 306.415C212.449 309.175 214.689 311.413 217.452 311.413Z" fill="#00A3FE"/>
<path d="M308.453 176.299C308.343 176.299 308.235 176.273 308.137 176.223L301.002 172.66C300.918 172.619 300.842 172.562 300.781 172.493C300.719 172.423 300.672 172.341 300.642 172.253C300.613 172.164 300.601 172.071 300.609 171.978C300.616 171.885 300.642 171.794 300.685 171.711C300.726 171.627 300.783 171.552 300.853 171.49C300.923 171.429 301.004 171.382 301.093 171.352C301.181 171.323 301.275 171.311 301.368 171.319C301.461 171.326 301.552 171.352 301.635 171.395L308.78 174.952C308.938 175.012 309.068 175.127 309.148 175.275C309.227 175.424 309.249 175.597 309.21 175.761C309.172 175.925 309.075 176.069 308.937 176.167C308.8 176.265 308.631 176.309 308.464 176.292L308.453 176.299Z" fill="#131F2D"/>
<path d="M298.314 184.854C298.126 184.86 297.944 184.791 297.807 184.663C297.67 184.535 297.59 184.357 297.584 184.17C297.578 183.982 297.647 183.8 297.775 183.663C297.904 183.527 298.081 183.446 298.269 183.44L306.196 182.905C306.384 182.893 306.568 182.954 306.71 183.078C306.851 183.201 306.938 183.375 306.951 183.562C306.964 183.749 306.902 183.933 306.779 184.075C306.655 184.216 306.481 184.303 306.294 184.316L298.363 184.85L298.314 184.854Z" fill="#131F2D"/>
<path d="M302.799 196.725C302.639 196.734 302.481 196.688 302.351 196.594C302.221 196.5 302.128 196.364 302.087 196.209C302.046 196.054 302.06 195.89 302.127 195.744C302.193 195.598 302.308 195.48 302.452 195.409L309.347 191.363C309.427 191.316 309.515 191.285 309.607 191.272C309.699 191.259 309.792 191.264 309.882 191.288C309.972 191.311 310.056 191.352 310.13 191.407C310.204 191.463 310.266 191.533 310.313 191.613C310.36 191.692 310.391 191.781 310.404 191.872C310.417 191.964 310.412 192.058 310.388 192.147C310.365 192.237 310.324 192.321 310.269 192.395C310.213 192.469 310.143 192.531 310.063 192.578L303.171 196.624C303.059 196.691 302.93 196.726 302.799 196.725Z" fill="#131F2D"/>
<path d="M331.645 176.299C331.513 176.301 331.384 176.264 331.271 176.195C331.159 176.125 331.069 176.026 331.012 175.907C330.969 175.824 330.943 175.734 330.935 175.641C330.928 175.548 330.939 175.454 330.969 175.366C330.998 175.277 331.045 175.196 331.107 175.126C331.169 175.056 331.244 174.999 331.329 174.959L338.47 171.402C338.56 171.361 338.65 171.336 338.74 171.33C338.83 171.324 338.93 171.336 339.01 171.365C339.1 171.395 339.18 171.441 339.25 171.502C339.32 171.563 339.38 171.637 339.42 171.72C339.46 171.803 339.49 171.893 339.49 171.986C339.5 172.078 339.49 172.171 339.46 172.259C339.43 172.347 339.38 172.428 339.32 172.498C339.26 172.568 339.19 172.625 339.1 172.666L331.947 176.216C331.854 176.266 331.751 176.295 331.645 176.299Z" fill="#131F2D"/>
<path d="M341.78 184.854H341.73L333.804 184.319C333.617 184.306 333.442 184.219 333.319 184.078C333.196 183.937 333.134 183.752 333.147 183.565C333.16 183.378 333.246 183.204 333.388 183.081C333.529 182.958 333.714 182.896 333.901 182.909L341.83 183.444C342.02 183.45 342.19 183.53 342.32 183.667C342.45 183.804 342.52 183.986 342.51 184.173C342.51 184.361 342.43 184.538 342.29 184.666C342.15 184.795 341.97 184.863 341.78 184.857V184.854Z" fill="#131F2D"/>
<path d="M337.298 196.725C337.176 196.723 337.056 196.688 336.951 196.624L330.059 192.578C329.979 192.531 329.91 192.469 329.854 192.395C329.798 192.321 329.757 192.237 329.734 192.147C329.711 192.058 329.705 191.964 329.718 191.872C329.731 191.781 329.762 191.692 329.809 191.613C329.856 191.533 329.918 191.463 329.992 191.407C330.066 191.352 330.151 191.311 330.24 191.288C330.33 191.264 330.424 191.259 330.515 191.272C330.607 191.285 330.696 191.316 330.776 191.363L337.657 195.402C337.8 195.473 337.915 195.591 337.982 195.737C338.05 195.883 338.06 196.047 338.02 196.202C337.98 196.357 337.887 196.493 337.757 196.587C337.627 196.681 337.469 196.727 337.309 196.718L337.298 196.725Z" fill="#131F2D"/>
<path d="M334.242 180.815C334.242 189.984 328.154 197.486 320.504 197.937C320.254 197.951 320.004 197.958 319.753 197.958C311.756 197.958 305.265 190.282 305.265 180.815C305.232 177.002 306.342 173.266 308.453 170.089C311.106 166.175 315.181 163.667 319.753 163.667C321.004 163.669 322.248 163.858 323.443 164.23C326.572 165.264 329.255 167.33 331.054 170.089C333.164 173.266 334.275 177.002 334.242 180.815Z" fill="#657285"/>
<path d="M334.242 180.814C334.242 189.984 328.154 197.486 320.504 197.937C319.515 195.105 318.807 192.183 318.39 189.212C317.514 183.051 317.886 177.209 319.228 172.458C320.178 169.075 321.621 166.241 323.442 164.23C326.571 165.264 329.255 167.33 331.054 170.089C333.164 173.266 334.275 177.002 334.242 180.814Z" fill="#657285"/>
<path d="M319.753 176.515C325.994 176.515 331.054 173.639 331.054 170.093C331.054 166.546 325.994 163.671 319.753 163.671C313.512 163.671 308.453 166.546 308.453 170.093C308.453 173.639 313.512 176.515 319.753 176.515Z" fill="#131F2D"/>
<path d="M316.582 165.897C316.398 165.897 316.221 165.824 316.091 165.694C315.96 165.563 315.887 165.387 315.887 165.203C315.755 159.836 310.8 157.662 310.748 157.641C310.575 157.568 310.439 157.428 310.368 157.254C310.298 157.08 310.3 156.885 310.374 156.712C310.448 156.54 310.587 156.403 310.762 156.333C310.936 156.263 311.131 156.265 311.304 156.339C311.544 156.443 317.149 158.902 317.299 165.168C317.303 165.261 317.287 165.355 317.254 165.442C317.221 165.53 317.17 165.61 317.105 165.677C317.04 165.745 316.962 165.798 316.876 165.835C316.79 165.871 316.697 165.89 316.603 165.89L316.582 165.897Z" fill="#131F2D"/>
<path d="M322.431 167.714C322.254 167.714 322.083 167.647 321.954 167.527C321.825 167.406 321.747 167.241 321.735 167.064C321.134 159.5 326.297 156.506 326.516 156.381C326.679 156.289 326.873 156.265 327.053 156.315C327.234 156.365 327.387 156.485 327.479 156.648C327.572 156.811 327.595 157.004 327.545 157.185C327.495 157.365 327.375 157.518 327.212 157.61C327.017 157.722 322.618 160.323 323.143 166.953C323.152 167.046 323.142 167.139 323.114 167.227C323.086 167.316 323.04 167.398 322.98 167.468C322.92 167.539 322.846 167.596 322.763 167.638C322.68 167.68 322.589 167.704 322.497 167.71L322.431 167.714Z" fill="#131F2D"/>
<g opacity="0.4">
<path d="M362.29 224.476C385.27 201.515 385.27 164.286 362.29 141.324C339.3 118.363 302.031 118.363 279.044 141.324C256.056 164.286 256.056 201.515 279.043 224.476C302.031 247.438 339.3 247.438 362.29 224.476Z" fill="#00A3FE"/>
</g>
<path d="M387.58 233.009C387.58 233.009 377.18 233.235 374.33 228.682C371.47 224.128 376.31 220.166 376.31 220.166L391.79 228.525L387.58 233.009Z" fill="#FF7955"/>
<path d="M371.37 209.195L366.84 216.497L481.66 287.526L486.19 280.224L371.37 209.195Z" fill="#131F2D"/>
<path d="M487.3 283.249L484.84 287.215C484.37 287.972 483.61 288.512 482.75 288.716C481.88 288.92 480.97 288.771 480.21 288.302L420.31 251.243C419.55 250.774 419.01 250.023 418.81 249.155C418.6 248.288 418.75 247.375 419.22 246.617L421.68 242.651C422.15 241.894 422.9 241.354 423.77 241.15C424.64 240.946 425.55 241.095 426.31 241.564L486.21 278.622C486.97 279.092 487.51 279.843 487.71 280.711C487.92 281.578 487.77 282.491 487.3 283.249Z" fill="#131F2D"/>
<path d="M268.279 150.487C261.862 160.836 258.66 172.855 259.081 185.022C259.501 197.189 263.523 208.958 270.64 218.842C277.756 228.725 287.647 236.279 299.061 240.547C310.475 244.816 322.9 245.607 334.765 242.822C346.63 240.037 357.4 233.8 365.72 224.9C374.03 216 379.52 204.837 381.48 192.822C383.45 180.807 381.8 168.48 376.75 157.399C371.7 146.319 363.48 136.983 353.12 130.571C346.24 126.314 338.59 123.453 330.6 122.15C322.614 120.847 314.448 121.128 306.57 122.977C298.692 124.826 291.255 128.208 284.685 132.928C278.116 137.648 272.541 143.614 268.279 150.487ZM368.46 212.469C362.6 221.911 354.07 229.407 343.95 234.008C333.833 238.61 322.574 240.11 311.601 238.32C300.627 236.53 290.431 231.529 282.302 223.95C274.173 216.372 268.477 206.556 265.933 195.743C263.39 184.931 264.113 173.608 268.011 163.206C271.91 152.804 278.809 143.791 287.836 137.306C296.863 130.82 307.613 127.155 318.726 126.772C329.838 126.39 340.81 129.307 350.27 135.156C356.54 139.039 361.99 144.119 366.3 150.106C370.62 156.093 373.7 162.87 375.39 170.049C377.08 177.229 377.34 184.67 376.15 191.948C374.96 199.227 372.34 206.2 368.46 212.469Z" fill="#131F2D"/>
<path d="M480.53 246.134C477.75 225.334 454.4 213.584 454.4 213.584C454.4 213.584 456.38 259.94 460.37 258.572C467.2 256.231 476.56 256.182 480.53 246.134Z" fill="#00A3FE"/>
<path d="M434.9 363.059C434.9 363.059 434.72 366.532 432.37 367.463C430.02 368.393 423.26 369.085 425.72 371.391C427.13 372.717 433.96 372.085 435.88 372.124C437.8 372.162 439.58 373.075 441.05 371.811C442.66 370.422 441.28 363.236 441.28 363.236C441.28 363.236 439.59 364.066 438.1 363.986C435.96 363.871 434.9 363.059 434.9 363.059Z" fill="#131F2D"/>
<path d="M418.04 275.285C418.49 282.512 419.34 291.893 420.91 303.369C423.9 325.25 427.53 347.301 429.32 357.877C429.6 359.684 430.48 361.345 431.82 362.592C433.16 363.839 434.88 364.599 436.7 364.75L438.69 364.886C442.68 365.156 446.02 361.76 445.84 357.613L442.71 286.305L442.41 274.962C442.41 274.962 417.3 263.431 418.04 275.285Z" fill="#364154"/>
<path d="M456.92 363.663C456.92 363.663 456.74 367.136 454.39 368.063C452.04 368.991 445.28 369.685 447.74 371.995C449.15 373.318 455.97 372.69 457.9 372.728C459.82 372.766 461.6 373.68 463.06 372.412C464.67 371.023 463.29 363.837 463.29 363.837C463.29 363.837 461.61 364.667 460.12 364.587C457.97 364.472 456.92 363.663 456.92 363.663Z" fill="#131F2D"/>
<path d="M439.66 257.968C439.66 257.968 438.78 273.68 442.92 303.977C445.92 325.858 449.55 347.909 451.34 358.485C451.62 360.292 452.5 361.954 453.83 363.201C455.17 364.448 456.89 365.208 458.72 365.358L460.71 365.493C464.7 365.764 468.04 362.368 467.85 358.221L464.72 286.913L464.11 263.455L439.66 257.968Z" fill="#364154"/>
<path d="M443.91 310.145L443.61 310.103C443.61 309.975 445.32 297.096 446.6 292.473C447.88 287.851 453.83 283.791 453.9 283.738L454.07 283.992C454.02 284.03 448.16 287.997 446.9 292.553C445.64 297.11 443.91 310.016 443.91 310.145Z" fill="#131F2D"/>
<path d="M443.98 209.67L442.44 204.97L441.99 203.602L439.34 195.555L438.99 203.543L438.78 208.35L438.72 209.871C438.67 210.913 438 211.118 437.19 212.018C436.86 212.365 434.76 214.584 437.15 215.578C440.13 216.821 445.7 214.942 447.82 212.479C447.8 212.49 444.48 211.191 443.98 209.67Z" fill="#FF7955"/>
<path d="M447.13 199.942C448.03 195.259 445.42 190.825 441.3 190.039C437.19 189.253 433.13 192.412 432.23 197.096C431.34 201.78 433.94 206.214 438.06 207C442.17 207.786 446.23 204.626 447.13 199.942Z" fill="#FF7955"/>
<path d="M435.47 195.555C431.13 195.708 429.02 193.349 428.97 191.165C428.91 188.362 430.78 185.882 432.96 186.924C435.14 187.966 434.21 185.41 436.3 185.139C440.22 184.632 440.96 187.257 444.16 187.386C448.39 187.552 453.2 194.19 449.67 199.035C449.67 199.035 438.9 195.433 435.47 195.555Z" fill="#131F2D"/>
<path d="M431.6 192.727C431.6 192.727 436.24 196.933 435.63 199.302C435.02 201.671 435.17 202.595 437.88 203.859C440.59 205.123 438.2 207.169 441.81 207.332C445.42 207.495 449.84 203.463 449.84 196.857C449.82 194.627 449.03 192.473 447.59 190.765L431.6 192.727Z" fill="#131F2D"/>
<path d="M433.29 199.198C433.52 198.863 433.88 198.628 434.28 198.541C434.68 198.453 435.09 198.519 435.45 198.726C435.61 198.841 435.74 198.988 435.84 199.158C435.94 199.328 436.01 199.516 436.03 199.712C436.06 199.908 436.04 200.106 435.98 200.295C435.93 200.484 435.83 200.659 435.7 200.81C435.47 201.145 435.11 201.379 434.71 201.466C434.31 201.553 433.9 201.486 433.54 201.278C433.38 201.164 433.25 201.017 433.15 200.848C433.05 200.678 432.98 200.49 432.96 200.294C432.93 200.098 432.95 199.9 433.01 199.711C433.06 199.522 433.16 199.348 433.29 199.198Z" fill="#FFB27D"/>
<path d="M451.41 200.858C451.39 200.857 451.36 200.848 451.34 200.833C451.32 200.817 451.31 200.796 451.3 200.771C451.11 200.186 450.72 199.692 450.18 199.382C450.17 199.376 450.16 199.367 450.15 199.356C450.14 199.345 450.14 199.332 450.13 199.318C450.13 199.304 450.13 199.29 450.13 199.276C450.13 199.262 450.13 199.248 450.14 199.236C450.15 199.224 450.16 199.212 450.17 199.203C450.18 199.194 450.19 199.187 450.21 199.183C450.22 199.179 450.23 199.178 450.25 199.179C450.26 199.18 450.28 199.184 450.29 199.191C450.88 199.533 451.32 200.085 451.52 200.737C451.52 200.751 451.52 200.765 451.52 200.779C451.52 200.793 451.51 200.807 451.5 200.819C451.5 200.832 451.49 200.842 451.47 200.851C451.46 200.859 451.45 200.865 451.44 200.869L451.41 200.858Z" fill="#131F2D"/>
<path d="M450.24 198.875C450.21 198.875 450.18 198.865 450.16 198.846C450.14 198.827 450.13 198.801 450.13 198.774C450.13 198.76 450.13 198.746 450.13 198.732C450.14 198.719 450.14 198.707 450.15 198.696C450.16 198.685 450.18 198.677 450.19 198.67C450.2 198.664 450.21 198.66 450.23 198.66C450.23 198.66 451.41 198.58 451.58 197.725C451.59 197.697 451.61 197.672 451.63 197.656C451.65 197.64 451.68 197.633 451.71 197.638C451.74 197.644 451.76 197.661 451.78 197.685C451.8 197.709 451.8 197.738 451.8 197.767C451.59 198.785 450.3 198.871 450.24 198.875Z" fill="#131F2D"/>
<path d="M433.62 186.757C433.54 186.757 433.46 186.746 433.39 186.722C433.07 186.623 432.77 186.473 432.5 186.278C432.25 186.07 431.95 185.931 431.63 185.876C431.32 185.821 430.99 185.852 430.69 185.965C430.67 185.97 430.66 185.971 430.65 185.97C430.63 185.968 430.62 185.964 430.6 185.957C430.59 185.951 430.58 185.941 430.57 185.93C430.56 185.919 430.56 185.906 430.55 185.892C430.55 185.879 430.55 185.864 430.55 185.85C430.55 185.836 430.55 185.822 430.56 185.809C430.57 185.797 430.58 185.786 430.59 185.777C430.6 185.768 430.61 185.761 430.63 185.757C430.96 185.636 431.32 185.605 431.67 185.666C432.02 185.727 432.34 185.878 432.61 186.104C432.87 186.287 433.15 186.427 433.45 186.521C433.52 186.546 433.6 186.554 433.68 186.542C433.76 186.531 433.84 186.501 433.91 186.455C434.38 186.132 434.5 185.066 434.5 185.066C434.5 185.038 434.52 185.012 434.54 184.994C434.56 184.976 434.59 184.967 434.62 184.969C434.63 184.97 434.65 184.974 434.66 184.981C434.67 184.988 434.68 184.997 434.69 185.009C434.7 185.02 434.71 185.033 434.71 185.047C434.72 185.061 434.72 185.076 434.71 185.09C434.71 185.135 434.59 186.25 434.02 186.632C433.9 186.714 433.76 186.758 433.62 186.757Z" fill="#131F2D"/>
<path d="M443.83 187.038C442.81 186.993 441.83 186.607 441.05 185.941C441.04 185.932 441.03 185.921 441.02 185.908C441.01 185.895 441.01 185.88 441 185.865C441 185.85 441 185.835 441.01 185.82C441.01 185.806 441.02 185.793 441.03 185.781C441.04 185.77 441.05 185.761 441.07 185.755C441.08 185.749 441.1 185.745 441.11 185.745C441.13 185.745 441.14 185.748 441.16 185.755C441.17 185.761 441.18 185.77 441.19 185.781C441.19 185.781 442.63 187.042 444.29 186.788C444.32 186.784 444.35 186.792 444.37 186.808C444.4 186.825 444.41 186.851 444.42 186.879C444.42 186.907 444.41 186.936 444.4 186.959C444.38 186.983 444.35 186.999 444.32 187.004C444.16 187.027 444 187.039 443.83 187.038Z" fill="#131F2D"/>
<path d="M434.45 201.577C434.35 201.58 434.25 201.567 434.15 201.539C434.14 201.538 434.14 201.535 434.13 201.531C434.12 201.527 434.12 201.522 434.11 201.515C434.11 201.509 434.11 201.502 434.11 201.494C434.1 201.486 434.1 201.479 434.11 201.471C434.11 201.464 434.11 201.457 434.12 201.451C434.12 201.446 434.13 201.441 434.14 201.439C434.14 201.436 434.15 201.435 434.16 201.435C434.17 201.436 434.18 201.438 434.18 201.442C434.22 201.442 435.16 201.737 435.83 200.487C435.83 200.48 435.84 200.475 435.84 200.47C435.85 200.466 435.85 200.463 435.86 200.461C435.87 200.459 435.87 200.458 435.88 200.459C435.89 200.46 435.89 200.462 435.9 200.466C435.91 200.472 435.92 200.483 435.92 200.496C435.93 200.509 435.93 200.523 435.92 200.535C435.44 201.428 434.82 201.577 434.45 201.577Z" fill="#131F2D"/>
<path d="M418.04 275.285C418.04 275.285 449.53 273.548 464.47 277.191L464.7 272.871L443.74 266.602L426.82 267.022L421.63 268.147L417.96 273.895L418.04 275.285Z" fill="#131F2D"/>
<path d="M461.68 222.663C461.68 222.663 458.9 210.576 441.95 210.576C412.4 210.576 420.69 235.017 417.96 273.878C417.96 273.878 437.01 269.689 464.57 275.267C464.57 275.267 467.26 254.223 463.79 236.434C462.87 231.731 463.03 226.747 461.68 222.663Z" fill="#00A3FE"/>
<path d="M438.55 210.576C438.55 210.576 429.07 210.715 422.02 217.463C414.98 224.212 405.9 233.503 403.97 238.848C401.6 245.447 405.97 252.046 411.51 252.178C417.05 252.31 422.02 248.243 422.02 248.243L438.55 210.576Z" fill="#00A3FE"/>
<path d="M465.47 265.782H465.26C466.08 250.538 463.42 234.933 463.39 234.777L463.6 234.742C463.61 234.888 466.28 250.518 465.47 265.782Z" fill="#131F2D"/>
<path d="M418.74 250.434L418.63 250.257C424.2 246.923 431.45 238.146 431.52 238.056L431.68 238.191C431.61 238.278 424.34 247.086 418.74 250.434Z" fill="#131F2D"/>
<path d="M380.06 234.749C379.99 239.06 401.36 254.814 414.18 252.181C427.81 249.403 410.99 234.239 410.99 234.239L385.87 228.463C385.87 228.463 380.13 230.384 380.06 234.749Z" fill="#00A3FE"/>
<path d="M385.87 228.463C385.94 227.961 385.89 227.45 385.71 226.974C385.54 226.497 385.25 226.071 384.88 225.73C383.59 224.594 382.25 219.415 381.4 220.714C380.56 222.013 381.34 226.146 380.06 226.591C378.78 227.035 385.87 228.463 385.87 228.463Z" fill="#FF7955"/>
<path d="M395.27 136.358H394.01C393.84 136.358 393.68 136.423 393.57 136.539C393.45 136.655 393.39 136.812 393.39 136.976V142.533C393.39 142.698 393.32 142.856 393.2 142.973C393.09 143.089 392.93 143.155 392.76 143.155H392.32C392.15 143.154 392 143.088 391.88 142.972C391.77 142.855 391.7 142.697 391.7 142.533V136.976C391.7 136.812 391.63 136.655 391.52 136.539C391.4 136.423 391.24 136.358 391.08 136.358H389.85C389.68 136.358 389.52 136.292 389.41 136.176C389.29 136.059 389.22 135.901 389.22 135.736V135.615C389.22 135.45 389.29 135.292 389.41 135.175C389.52 135.058 389.68 134.993 389.85 134.993H395.27C395.44 134.993 395.59 135.058 395.71 135.175C395.83 135.292 395.89 135.45 395.89 135.615V135.736C395.89 135.901 395.83 136.059 395.71 136.176C395.59 136.292 395.44 136.358 395.27 136.358Z" fill="#00A3FE"/>
<path d="M401.14 139.612H399.14C398.98 139.612 398.82 139.678 398.71 139.794C398.59 139.909 398.53 140.067 398.53 140.231V141.179C398.53 141.343 398.59 141.501 398.71 141.617C398.82 141.734 398.98 141.8 399.14 141.801H401.7C401.78 141.801 401.87 141.817 401.94 141.848C402.02 141.879 402.08 141.925 402.14 141.983C402.2 142.041 402.25 142.109 402.28 142.185C402.31 142.26 402.32 142.341 402.32 142.422V142.533C402.32 142.615 402.31 142.696 402.28 142.771C402.25 142.846 402.2 142.915 402.14 142.973C402.08 143.031 402.02 143.076 401.94 143.108C401.87 143.139 401.78 143.155 401.7 143.155H397.46C397.3 143.155 397.14 143.09 397.02 142.973C396.9 142.856 396.84 142.698 396.84 142.533V135.587C396.84 135.422 396.9 135.264 397.02 135.147C397.14 135.031 397.3 134.965 397.46 134.965H401.69C401.86 134.966 402.01 135.032 402.13 135.149C402.25 135.265 402.31 135.423 402.31 135.587V135.709C402.31 135.873 402.25 136.03 402.13 136.147C402.01 136.263 401.86 136.329 401.69 136.33H399.14C398.98 136.33 398.82 136.395 398.71 136.511C398.59 136.627 398.53 136.785 398.53 136.949V137.643C398.53 137.807 398.59 137.965 398.71 138.082C398.82 138.198 398.98 138.264 399.14 138.265H401.14C401.3 138.265 401.46 138.33 401.58 138.446C401.7 138.562 401.76 138.719 401.76 138.883V138.963C401.77 139.047 401.75 139.131 401.72 139.209C401.69 139.288 401.65 139.36 401.59 139.421C401.53 139.481 401.46 139.53 401.38 139.563C401.31 139.596 401.22 139.613 401.14 139.612Z" fill="#00A3FE"/>
<path d="M407.57 141.008C407.57 140.878 407.55 140.747 407.51 140.623C407.46 140.498 407.38 140.389 407.27 140.307C407.12 140.191 406.95 140.095 406.78 140.022C406.52 139.907 406.25 139.807 405.97 139.723C405.62 139.609 405.27 139.475 404.93 139.32C404.62 139.183 404.32 139.004 404.06 138.789C403.82 138.598 403.62 138.362 403.47 138.094C403.32 137.805 403.25 137.486 403.25 137.162C403.25 136.838 403.32 136.519 403.47 136.229C403.62 135.944 403.83 135.696 404.09 135.507C404.38 135.298 404.7 135.14 405.04 135.041C405.44 134.93 405.85 134.875 406.26 134.878C406.68 134.873 407.1 134.936 407.5 135.066C407.85 135.178 408.17 135.356 408.45 135.59C408.71 135.809 408.91 136.082 409.05 136.389C409.09 136.456 409.11 136.522 409.14 136.587C409.17 136.68 409.18 136.78 409.16 136.877C409.15 136.974 409.11 137.066 409.05 137.146C408.99 137.226 408.92 137.29 408.83 137.335C408.74 137.38 408.64 137.403 408.55 137.403H408.09C407.96 137.402 407.84 137.36 407.73 137.283C407.62 137.206 407.54 137.097 407.5 136.973C407.5 136.973 407.5 136.941 407.5 136.927C407.45 136.784 407.36 136.655 407.25 136.549C407.13 136.44 406.99 136.357 406.83 136.306C406.64 136.243 406.44 136.214 406.23 136.219C406.04 136.216 405.84 136.24 405.66 136.292C405.51 136.334 405.37 136.402 405.25 136.493C405.15 136.574 405.07 136.679 405.01 136.799C404.96 136.914 404.93 137.04 404.93 137.167C404.93 137.309 404.97 137.449 405.04 137.571C405.11 137.693 405.22 137.793 405.34 137.862C405.72 138.087 406.13 138.258 406.55 138.369C406.96 138.491 407.35 138.646 407.73 138.831C408.04 138.978 408.33 139.171 408.58 139.404C408.8 139.606 408.97 139.851 409.1 140.123C409.22 140.409 409.27 140.716 409.27 141.026C409.28 141.358 409.2 141.686 409.06 141.984C408.92 142.26 408.71 142.498 408.46 142.679C408.18 142.883 407.86 143.032 407.52 143.12C407.13 143.229 406.71 143.281 406.3 143.276C406.03 143.276 405.76 143.252 405.49 143.207C405.23 143.161 404.97 143.088 404.72 142.988C404.47 142.9 404.24 142.783 404.02 142.641C403.82 142.497 403.63 142.324 403.47 142.127C403.32 141.922 403.19 141.693 403.11 141.449V141.411C403.08 141.318 403.07 141.22 403.09 141.124C403.1 141.028 403.14 140.938 403.2 140.859C403.26 140.781 403.34 140.718 403.42 140.674C403.51 140.631 403.61 140.608 403.7 140.609H404.14C404.27 140.609 404.4 140.654 404.51 140.736C404.62 140.818 404.7 140.933 404.74 141.064C404.75 141.123 404.77 141.182 404.8 141.238C404.87 141.402 404.98 141.547 405.12 141.658C405.28 141.768 405.45 141.847 405.64 141.891C405.85 141.941 406.07 141.966 406.3 141.964C406.49 141.966 406.68 141.943 406.87 141.894C407.01 141.855 407.14 141.789 407.26 141.7C407.37 141.622 407.45 141.521 407.5 141.404C407.55 141.279 407.58 141.144 407.57 141.008Z" fill="#00A3FE"/>
<path d="M415.94 136.358H414.68C414.51 136.358 414.35 136.423 414.24 136.539C414.12 136.655 414.06 136.812 414.06 136.976V142.533C414.06 142.698 413.99 142.856 413.87 142.973C413.76 143.09 413.6 143.155 413.43 143.155H412.99C412.83 143.154 412.67 143.088 412.55 142.972C412.44 142.855 412.37 142.698 412.37 142.533V136.976C412.37 136.812 412.3 136.655 412.19 136.539C412.07 136.423 411.91 136.358 411.75 136.358H410.53C410.36 136.357 410.21 136.291 410.09 136.175C409.97 136.058 409.91 135.901 409.91 135.736V135.615C409.91 135.531 409.92 135.448 409.95 135.37C409.98 135.292 410.02 135.221 410.08 135.161C410.14 135.1 410.21 135.052 410.29 135.019C410.36 134.986 410.44 134.969 410.53 134.969H415.95C416.12 134.969 416.28 135.034 416.39 135.151C416.51 135.267 416.57 135.426 416.57 135.59V135.712C416.58 135.797 416.56 135.881 416.53 135.96C416.5 136.039 416.46 136.111 416.4 136.171C416.34 136.232 416.27 136.279 416.19 136.312C416.11 136.344 416.03 136.36 415.94 136.358Z" fill="#00A3FE"/>
<path d="M418.7 143.155H418.25C418.09 143.154 417.93 143.088 417.81 142.972C417.7 142.855 417.63 142.698 417.63 142.533V135.587C417.63 135.423 417.7 135.265 417.81 135.149C417.93 135.032 418.09 134.966 418.25 134.965H418.7C418.86 134.965 419.02 135.031 419.14 135.147C419.25 135.264 419.32 135.422 419.32 135.587V142.533C419.32 142.698 419.25 142.856 419.14 142.973C419.02 143.09 418.86 143.155 418.7 143.155Z" fill="#00A3FE"/>
<path d="M426.91 143.155H426.2C426.09 143.155 425.98 143.127 425.89 143.075C425.8 143.023 425.72 142.947 425.67 142.856L423.72 139.661C423.65 139.547 423.54 139.459 423.41 139.41C423.29 139.361 423.15 139.354 423.02 139.391C422.89 139.427 422.78 139.505 422.69 139.612C422.61 139.719 422.57 139.849 422.57 139.984V142.533C422.57 142.698 422.5 142.856 422.38 142.973C422.27 143.09 422.11 143.155 421.94 143.155H421.5C421.34 143.155 421.18 143.09 421.06 142.973C420.94 142.856 420.88 142.698 420.88 142.533V135.587C420.88 135.422 420.94 135.264 421.06 135.147C421.18 135.031 421.34 134.965 421.5 134.965H422.22C422.32 134.966 422.43 134.993 422.52 135.045C422.61 135.098 422.69 135.173 422.75 135.264L424.7 138.466C424.77 138.582 424.88 138.672 425 138.722C425.13 138.771 425.27 138.779 425.4 138.743C425.53 138.707 425.64 138.629 425.73 138.521C425.81 138.414 425.85 138.282 425.85 138.147V135.587C425.85 135.423 425.92 135.265 426.04 135.149C426.15 135.032 426.31 134.966 426.47 134.965H426.91C427.08 134.965 427.24 135.031 427.35 135.147C427.47 135.264 427.53 135.422 427.53 135.587V142.533C427.53 142.698 427.47 142.856 427.35 142.973C427.24 143.09 427.08 143.155 426.91 143.155Z" fill="#00A3FE"/>
<path d="M435.48 141.87C435.48 141.957 435.46 142.043 435.43 142.123C435.39 142.202 435.34 142.274 435.27 142.332C435.22 142.384 435.15 142.439 435.08 142.495C434.89 142.642 434.67 142.765 434.45 142.863C434.16 142.989 433.86 143.086 433.55 143.151C433.15 143.232 432.75 143.271 432.35 143.266C431.86 143.272 431.36 143.184 430.9 143.005C430.48 142.838 430.09 142.575 429.78 142.238C429.46 141.878 429.21 141.456 429.06 140.998C428.88 140.455 428.79 139.885 428.8 139.313V138.831C428.79 138.258 428.88 137.689 429.05 137.143C429.2 136.685 429.43 136.262 429.75 135.899C430.04 135.564 430.41 135.301 430.83 135.132C431.28 134.951 431.76 134.861 432.24 134.868C432.71 134.857 433.18 134.924 433.63 135.066C433.99 135.182 434.32 135.372 434.6 135.625C434.86 135.865 435.07 136.157 435.21 136.483C435.25 136.574 435.29 136.668 435.32 136.764C435.35 136.858 435.36 136.957 435.34 137.054C435.33 137.151 435.29 137.243 435.23 137.323C435.17 137.403 435.1 137.468 435.01 137.512C434.92 137.557 434.83 137.58 434.73 137.58H434.34C434.21 137.579 434.08 137.536 433.97 137.459C433.87 137.382 433.79 137.273 433.75 137.15L433.7 137.021C433.63 136.86 433.53 136.714 433.41 136.594C433.28 136.471 433.12 136.377 432.95 136.32C432.74 136.253 432.52 136.221 432.3 136.226C432.04 136.213 431.79 136.266 431.56 136.38C431.33 136.494 431.13 136.666 430.99 136.879C430.65 137.467 430.49 138.143 430.53 138.82V139.313C430.49 139.996 430.66 140.676 431.03 141.255C431.19 141.47 431.4 141.643 431.65 141.758C431.89 141.873 432.16 141.927 432.43 141.915C432.61 141.918 432.79 141.905 432.96 141.877C433.09 141.856 433.22 141.823 433.35 141.779C433.44 141.745 433.53 141.702 433.61 141.651C433.68 141.61 433.73 141.564 433.79 141.512V140.724C433.79 140.559 433.72 140.401 433.61 140.284C433.49 140.167 433.33 140.102 433.17 140.102H432.87C432.71 140.102 432.55 140.037 432.44 139.921C432.32 139.805 432.25 139.648 432.25 139.484C432.25 139.319 432.32 139.161 432.43 139.044C432.55 138.927 432.71 138.862 432.87 138.862H434.87C434.95 138.862 435.03 138.878 435.1 138.909C435.18 138.941 435.25 138.986 435.31 139.044C435.36 139.102 435.41 139.171 435.44 139.246C435.47 139.321 435.49 139.402 435.49 139.484L435.48 141.87Z" fill="#00A3FE"/>
</svg>
