<svg width="47" height="55" viewBox="0 0 47 55" fill="none" xmlns="http://www.w3.org/2000/svg">
<path d="M24.6534 47.1233C34.4928 47.1233 42.4693 37.9368 42.4693 26.6045C42.4693 15.2723 34.4928 6.08569 24.6534 6.08569C14.8139 6.08569 6.8374 15.2723 6.8374 26.6045C6.8374 37.9368 14.8139 47.1233 24.6534 47.1233Z" fill="#FCA311"/>
<path d="M24.6534 47.1233C34.4928 47.1233 42.4693 37.9368 42.4693 26.6045C42.4693 15.2723 34.4928 6.08569 24.6534 6.08569C14.8139 6.08569 6.8374 15.2723 6.8374 26.6045C6.8374 37.9368 14.8139 47.1233 24.6534 47.1233Z" fill="url(#paint0_linear_104_922)"/>
<path d="M19.3007 31.7343V27.9025L16.1606 20.9619H18.0982L20.1692 25.9326L22.227 20.9619H24.1377L21.0111 27.9025V31.7343H19.3007ZM27.4114 31.7343V22.547H24.6856V20.9619H31.861V22.547H29.1218V31.7343H27.4114Z" fill="white"/>
<defs>
<linearGradient id="paint0_linear_104_922" x1="6.8374" y1="5.89589" x2="33.8252" y2="51.9934" gradientUnits="userSpaceOnUse">
<stop stop-color="#09C6F9"/>
<stop offset="1" stop-color="#045DE9"/>
</linearGradient>
</defs>
</svg>
